<svg xmlns="http://www.w3.org/2000/svg" xmlns:xlink="http://www.w3.org/1999/xlink" id="_a0" viewBox="0 0 1280 720" onclick="document.getElementById('_a0').getAnimations({subtree:true}).forEach(function(a){a.currentTime=0;a.play()})" style="background: #002b36; white-space: pre;"><style>
@keyframes a0_o { 0% { opacity: 1; } 34.286% { opacity: 1; } 45.714% { opacity: 0; } 100% { opacity: 0; } }
@keyframes a1_t { 0% { transform: translate(1175.3px,520.7px) scale(1,1) translate(-12.3px,-19.3px); } 13.333% { transform: translate(990.5px,538px) scale(1,1) translate(-12.3px,-19.3px); } 23.809% { transform: translate(435.8px,369.5px) scale(1,1) translate(-12.3px,-19.3px); } 32.381% { transform: translate(163px,369.5px) scale(2,2) translate(-12.3px,-19.3px); } 100% { transform: translate(163px,369.5px) scale(2,2) translate(-12.3px,-19.3px); } }
@keyframes a1_o { 0% { opacity: 1; } 12.381% { opacity: 1; } 14.286% { opacity: 0; } 23.81% { opacity: 0; } 25.714% { opacity: 1; } 32.381% { opacity: 1; } 40.952% { opacity: 0; } 100% { opacity: 0; } }
@keyframes a2_t { 0% { transform: translate(824px,98.9px) scale(.5,.5); } 56.19% { transform: translate(824px,98.9px) scale(.5,.5); } 66.667% { transform: translate(329.2px,327.4px) scale(.5,.5); } 100% { transform: translate(329.2px,327.4px) scale(.5,.5); } }
@keyframes a2_o { 0% { opacity: 0; } 55.238% { opacity: 0; } 57.143% { opacity: 1; } 76.19% { opacity: 1; } 82.857% { opacity: 0; } 100% { opacity: 0; } }
@keyframes a3_t { 0% { transform: translate(925.2px,495.9px) scale(.5,.5); } 13.333% { transform: translate(925.2px,495.9px) scale(.5,.5); } 23.809% { transform: translate(329.2px,327.4px) scale(.5,.5); } 100% { transform: translate(329.2px,327.4px) scale(.5,.5); } }
@keyframes a3_o { 0% { opacity: 0; } 12.381% { opacity: 0; } 14.286% { opacity: 1; } 23.81% { opacity: 1; } 25.714% { opacity: 0; } 100% { opacity: 0; } }
@keyframes a4_o { 0% { opacity: 0; } 76.19% { opacity: 0; } 80% { opacity: 1; } 100% { opacity: 1; } }
@keyframes a5_t { 0% { transform: translate(1115.8px,141.1px) scale(1,1) translate(-20.8px,-20.8px); } 44.762% { transform: translate(1115.8px,141.1px) scale(1,1) translate(-20.8px,-20.8px); } 54.286% { transform: translate(913px,139.6px) scale(1,1) translate(-20.8px,-20.8px); } 56.19% { transform: translate(913px,139.6px) scale(1,1) translate(-20.8px,-20.8px); } 62.857% { transform: translate(494.8px,354.3px) scale(1,1) translate(-20.8px,-20.8px); } 78.095% { transform: translate(435px,385px) scale(1,1) translate(-20.8px,-20.8px); } 79.048% { transform: translate(414.2px,383.8px) scale(1,1) translate(-20.8px,-20.8px); } 84.762% { transform: translate(270.1px,234.6px) scale(1,1) translate(-20.8px,-20.8px); } 89.524% { transform: translate(150px,110.2px) scale(.6,.6) translate(-20.8px,-20.8px); } 100% { transform: translate(150px,110.2px) scale(.6,.6) translate(-20.8px,-20.8px); } }
@keyframes a5_o { 0% { opacity: 0; } 40% { opacity: 0; } 41.905% { opacity: 1; animation-timing-function: cubic-bezier(0,0,1,1); } 53.333% { opacity: 1; } 55.238% { opacity: 0; } 62.857% { opacity: 0; } 78.095% { opacity: 0; } 80.952% { opacity: 1; } 100% { opacity: 1; } }
</style><use x="857.9" y="67" width="110.3" height="176.5" xlink:href="#server"/><use x="933.9" y="450.5" width="110.3" height="176.5" xlink:href="#server"/><use x="404.4" y="304.8" width="110.3" height="176.5" xlink:href="#server"/><defs><symbol id="richtext" preserveAspectRatio="none" width="28" height="26" viewBox="0 0 28 26" overflow="visible"><g transform="translate(-2,-2)"><path d="M22 4h7c.6 0 1-0.4 1-1c0-0.6-0.4-1-1-1h-7c-0.6 0-1 .4-1 1c0 .6 .4 1 1 1Z"/><path d="M29 8h-7c-0.6 0-1 .4-1 1c0 .6 .4 1 1 1h7c.6 0 1-0.4 1-1c0-0.6-0.4-1-1-1Z"/><path d="M29 14h-7c-0.6 0-1 .4-1 1c0 .6 .4 1 1 1h7c.6 0 1-0.4 1-1c0-0.6-0.4-1-1-1Z"/><path d="M29 20h-26c-0.6 0-1 .4-1 1c0 .6 .4 1 1 1h26c.6 0 1-0.4 1-1c0-0.6-0.4-1-1-1Z"/><path d="M29 26h-26c-0.6 0-1 .4-1 1c0 .6 .4 1 1 1h26c.6 0 1-0.4 1-1c0-0.6-0.4-1-1-1Z"/><path d="M8.6 8.2l3.4 2.6l5-3.6v-4.2c0-0.6-0.4-1-1-1h-13c-0.6 0-1 .4-1 1v9.3l5.4-4c.4-0.4 .8-0.4 1.2-0.1Zm3.4-4.2c1.1 0 2 .9 2 2c0 1.1-0.9 2-2 2c-1.1 0-2-0.9-2-2c0-1.1 .9-2 2-2Z"/><path d="M3 16h13c.6 0 1-0.4 1-1v-5.3l-4.4 3.2c-0.4 .3-0.8 .2-1.2 0l-3.4-2.6l-6 4.5v.2c0 .6 .4 1 1 1Z"/></g></symbol><symbol id="phone" preserveAspectRatio="none" width="43" height="68" viewBox="0 0 43 68" overflow="visible"><g transform="translate(-29,-17)"><rect x="32" y="19" width="37" height="63" fill="#fff"/><path d="M72 23.2c0-3.4-2.8-6.2-6.2-6.2h-30.6c-3.4 0-6.2 2.8-6.2 6.2v55.6c0 3.4 2.8 6.2 6.2 6.2h30.6c3.4 0 6.2-2.8 6.2-6.2v-55.6Zm-4 55.6c0 1.2-1 2.2-2.2 2.2h-30.6c-1.2 0-2.2-1-2.2-2.2v-55.6c0-1.2 1-2.2 2.2-2.2h30.6c1.2 0 2.2 1 2.2 2.2v55.6Z"/><path d="M65 26c0-1.1-0.9-2-2-2h-25c-1.1 0-2 .9-2 2v42c0 1.1 .9 2 2 2h25c1.1 0 2-0.9 2-2v-42Zm-25 2h21v38h-21v-38Z"/><ellipse cx="50.3" cy="75" rx="3.5" ry="3.5"/></g></symbol><symbol id="server" preserveAspectRatio="none" width="40" height="64" viewBox="0 0 40 64" overflow="visible"><g transform="translate(-12,0)"><g><g><path fill="#b4ccb9" d="M14 60c0 1.1 .9 2 2 2h32c1.1 0 2-0.9 2-2v-22h-36v22Z"/><rect x="14" y="26" fill="#b4ccb9" width="36" height="10"/><rect x="14" y="14" fill="#b4ccb9" width="36" height="10"/><path fill="#b4ccb9" d="M48 2h-32c-1.1 0-2 .9-2 2v8h36v-8c0-1.1-0.9-2-2-2Z"/></g><g opacity=".15"><rect x="14" y="26" width="36" height="10"/><rect x="14" y="14" width="36" height="10"/><path d="M48 2h-32c-1.1 0-2 .9-2 2v8h36v-8c0-1.1-0.9-2-2-2Z"/></g><g><path fill="#394240" d="M48 0h-32c-2.2 0-4 1.8-4 4v56c0 2.2 1.8 4 4 4h32c2.2 0 4-1.8 4-4v-56c0-2.2-1.8-4-4-4Zm2 60c0 1.1-0.9 2-2 2h-32c-1.1 0-2-0.9-2-2v-22h36v22Zm0-24h-36v-10h36v10Zm0-12h-36v-10h36v10Zm0-12h-36v-8c0-1.1 .9-2 2-2h32c1.1 0 2 .9 2 2v8Z"/><path fill="#394240" d="M43 6h-22c-0.6 0-1 .4-1 1c0 .6 .4 1 1 1h22c.6 0 1-0.4 1-1c0-0.6-0.4-1-1-1Z"/><path fill="#394240" d="M21 20h22c.6 0 1-0.4 1-1c0-0.6-0.4-1-1-1h-22c-0.6 0-1 .4-1 1c0 .6 .4 1 1 1Z"/><path fill="#394240" d="M21 32h22c.6 0 1-0.4 1-1c0-0.6-0.4-1-1-1h-22c-0.6 0-1 .4-1 1c0 .6 .4 1 1 1Z"/><path fill="#394240" d="M32 58c1.7 0 3-1.3 3-3c0-1.7-1.3-3-3-3c-1.7 0-3 1.3-3 3c0 1.7 1.3 3 3 3Zm0-4c.6 0 1 .4 1 1c0 .6-0.4 1-1 1c-0.6 0-1-0.4-1-1c0-0.6 .4-1 1-1Z"/><path fill="#394240" d="M40 58c1.7 0 3-1.3 3-3c0-1.7-1.3-3-3-3c-1.7 0-3 1.3-3 3c0 1.7 1.3 3 3 3Zm0-4c.6 0 1 .4 1 1c0 .6-0.4 1-1 1c-0.6 0-1-0.4-1-1c0-0.6 .4-1 1-1Z"/><path fill="#394240" d="M24 58c1.7 0 3-1.3 3-3c0-1.7-1.3-3-3-3c-1.7 0-3 1.3-3 3c0 1.7 1.3 3 3 3Zm0-4c.6 0 1 .4 1 1c0 .6-0.4 1-1 1c-0.6 0-1-0.4-1-1c0-0.6 .4-1 1-1Z"/></g></g><ellipse cx="24" cy="55" fill="#45aab8" rx="1" ry="1"/><ellipse cx="32" cy="55" fill="#f76d57" rx="1" ry="1"/><ellipse cx="40" cy="55" fill="#f9ebb2" rx="1" ry="1"/></g></symbol><symbol id="flower" preserveAspectRatio="none" width="640.3" height="1010" viewBox="0 0 640.3 1010" overflow="visible"><g><g><path fill="#a6dddd" d="M386.6 850.5c-46.4 50.2-66.5 142.7-66.5 142.7c0 0 90.6-27.4 137-77.7c46.4-50.3 50.5-86.4 31.1-104.3c-19.5-18-55.2-11-101.6 39.3Z"/><path fill="#a6dddd" d="M253.7 850.5c46.3 50.2 66.4 142.7 66.4 142.7c0 0-90.5-27.4-136.9-77.7c-46.4-50.3-50.6-86.4-31.1-104.3c19.4-18 55.1-11 101.5 39.3Z"/><path fill="#a6dddd" d="M386.6 671.5c-46.4 50.3-66.5 142.7-66.5 142.7c0 0 90.6-27.4 137-77.7c46.4-50.3 50.5-86.4 31.1-104.4c-19.5-17.9-55.2-10.9-101.6 39.4Z"/><path fill="#a6dddd" d="M253.7 671.5c46.3 50.3 66.4 142.7 66.4 142.7c0 0-90.5-27.4-136.9-77.7c-46.4-50.3-50.6-86.4-31.1-104.4c19.4-17.9 55.1-10.9 101.5 39.4Z"/><path fill="#ffca72" d="M544.6 225.6c25.7-36.9 22.1-87.9-10.9-120.7c-33.1-33.2-84.7-36.4-121.5-10.2c-7.9-44.4-46.6-77.9-93.3-77.9c-46.7 0-85.6 34.1-93.2 78.7c-36.9-25.6-88-21.9-120.9 11c-33.4 33.3-36.4 85-9.5 122c-44.6 7.6-78.5 45.9-78.5 92.7c0 47 34 85.8 78.7 93.4c-25.6 36.9-21.9 87.9 11 120.8c33.1 33.1 84.7 36.5 121.6 10.3c8.1 44.2 46.8 77.7 93.2 77.7c46.8 0 85.7-34 93.3-78.7c36.9 25.5 87.9 21.9 120.8-11c33.1-33.1 36.5-84.7 10.4-121.6c44.1-8 77.6-46.7 77.6-93.1c0-46.9-34.1-85.8-78.8-93.4Z"/><path fill="#fffffd" d="M320.1 472.6c-84.2 0-152.5-68.2-152.5-152.5c0-84.2 68.3-152.4 152.5-152.4c84.3 0 152.5 68.2 152.5 152.4c0 84.2-68.2 152.5-152.5 152.5Z"/></g><g><g><path fill="#37474f" d="M320.1 1010c-4.1 0-8.2-1.6-11.4-4.5c-4.4-4-6.3-10.1-5-15.9c.8-4 21.6-97.5 70.5-150.5c32.9-35.7 63.3-53.7 90.3-53.7c13.5 0 25.6 4.6 35.1 13.4c11.2 10.3 41.9 50-30.2 128.1c-48.9 53-140.5 81.2-144.4 82.4c-1.6 .5-3.2 .7-4.9 .7Zm144.4-191c-7.8 0-29.8 4.2-65.5 42.9c-26.8 29-44.5 74.3-53.9 104.3c29.1-11.9 72.8-33.1 99.6-62.1c33.3-36.1 45.9-67.8 32-80.6c-3.2-3-7.2-4.5-12.2-4.5Z"/></g><g><path fill="#37474f" d="M320.1 1010c-1.6 0-3.2-0.2-4.8-0.7c-3.9-1.2-95.5-29.4-144.5-82.4c-72.1-78.1-41.3-117.8-30.1-128.1c9.5-8.8 21.6-13.4 35-13.4c27 0 57.4 18 90.3 53.7c49 53 69.7 146.5 70.6 150.5c1.2 5.8-0.7 11.9-5 15.9c-3.2 2.9-7.3 4.5-11.5 4.5Zm-144.4-191c-4.9 0-8.9 1.5-12.2 4.5c-13.9 12.8-1.3 44.5 32 80.6c26.9 29 70.6 50.2 99.7 62.1c-9.5-30-27.2-75.3-53.9-104.3c-35.7-38.7-57.8-42.9-65.6-42.9Z"/></g><g><path fill="#37474f" d="M320.1 831c-4.1 0-8.2-1.5-11.4-4.5c-4.4-4-6.3-10.1-5-15.9c.8-3.9 21.6-97.5 70.5-150.5c32.9-35.7 63.3-53.7 90.4-53.7c13.4 0 25.5 4.6 35 13.4c11.2 10.3 41.9 50-30.2 128.1c-48.9 53.1-140.5 81.2-144.4 82.4c-1.6 .5-3.2 .7-4.9 .7Zm144.5-191c-7.9 0-29.9 4.2-65.6 42.9c-26.8 29.1-44.5 74.3-53.9 104.3c29.1-11.9 72.8-33.1 99.6-62.1c33.3-36.1 45.9-67.8 32-80.6c-3.2-3-7.2-4.5-12.1-4.5Z"/></g><g><path fill="#37474f" d="M320.1 831c-1.6 0-3.2-0.2-4.8-0.7c-3.9-1.2-95.5-29.3-144.5-82.4c-72.1-78.1-41.3-117.8-30.1-128.1c9.5-8.8 21.6-13.4 35-13.4c27 0 57.4 18 90.3 53.7c49 53 69.7 146.6 70.6 150.5c1.2 5.8-0.7 11.9-5 15.9c-3.2 3-7.3 4.5-11.5 4.5Zm-144.4-191c-4.9 0-8.9 1.5-12.2 4.5c-13.9 12.8-1.3 44.5 32 80.6c26.9 29.1 70.6 50.3 99.7 62.1c-9.5-30-27.2-75.3-53.9-104.3c-35.7-38.7-57.8-42.9-65.6-42.9Z"/></g><g><path fill="#37474f" d="M321.3 640.2c-46.1 0-86.6-28.2-103.4-69.5c-13.9 6.1-29 9.2-44.5 9.2c-29.8 0-57.7-11.6-78.8-32.6c-32.6-32.7-41.4-81.2-24-122.2c-42-16.4-70.6-57.1-70.6-103.9c0-46.2 28.3-86.5 70-103c-18.6-41.4-10.3-90.4 22.9-123.7c21.1-21 49.1-32.6 78.9-32.6c15.1 0 29.8 3 43.4 8.7c16.4-42 57-70.6 103.7-70.6c46.4 0 86.9 28.2 103.5 69.7c14-6.1 29.1-9.3 44.6-9.3c29.7 0 57.6 11.6 78.6 32.6c32.7 32.6 41.4 81.1 24 122.2c42 16.4 70.7 57 70.7 103.8c0 46.2-28.2 86.6-69.5 103.3c18 41.3 9.5 90.2-23.5 123.3c-21 21.1-49 32.7-78.8 32.7c-15.1 0-29.8-3-43.4-8.7c-16.4 42-57.1 70.6-103.8 70.6Zm-93.2-111.4c2.1 0 4.3 .4 6.3 1.3c5.4 2.1 9.2 6.9 10.3 12.5c6.7 37.1 39 63.9 76.6 63.9c38.1 0 70.4-27.2 76.7-64.7c1-5.6 4.8-10.4 10.1-12.7c5.3-2.2 11.4-1.5 16.1 1.7c13 9 28.3 13.8 44.3 13.8c20.8 0 40.3-8.1 55-22.8c26.9-26.9 30.5-69 8.5-100c-3.3-4.7-4-10.7-1.8-16.1c2.2-5.3 6.9-9.2 12.6-10.2c36.9-6.6 63.8-38.8 63.8-76.5c0-38.1-27.2-70.4-64.8-76.8c-5.6-0.9-10.4-4.7-12.7-10c-2.2-5.3-1.6-11.4 1.7-16.2c21.5-30.9 17.7-72.6-9-99.2c-14.6-14.7-34.1-22.7-54.8-22.7c-16.3 0-31.9 4.9-45.1 14.3c-4.7 3.4-10.8 4.1-16.1 1.9c-5.4-2.2-9.2-7-10.2-12.7c-6.6-37-38.8-63.9-76.7-63.9c-38 0-70.2 27.2-76.6 64.6c-0.9 5.7-4.7 10.5-10 12.7c-5.3 2.2-11.4 1.6-16.1-1.6c-13.1-9.1-28.4-13.8-44.4-13.8c-20.8 0-40.4 8-55.1 22.8c-27.1 27-30.3 69.2-7.8 100.2c3.5 4.7 4.2 10.8 2 16.2c-2.2 5.4-7 9.3-12.7 10.3c-37.4 6.3-64.5 38.4-64.5 76.1c0 38.2 27.2 70.4 64.6 76.8c5.7 1 10.5 4.8 12.7 10.1c2.3 5.3 1.6 11.4-1.6 16.1c-21.5 30.9-17.6 72.6 9 99.3c14.7 14.7 34.2 22.8 55 22.8c16.3 0 31.8-5 44.9-14.3c2.9-2.1 6.4-3.2 9.8-3.2Z"/></g><g><path fill="#37474f" d="M320.1 489.4c-93.3 0-169.3-75.9-169.3-169.3c0-93.3 75.9-169.3 169.3-169.3c93.4 0 169.3 76 169.3 169.3c0 93.4-75.9 169.3-169.3 169.3Zm0-304.9c-74.8 0-135.7 60.8-135.7 135.6c0 74.8 60.9 135.6 135.7 135.6c74.8 0 135.7-60.8 135.7-135.6c0-74.8-60.9-135.6-135.7-135.6Z"/></g><g><path fill="#37474f" d="M320.1 1010c-9.3 0-16.8-7.5-16.8-16.8v-369.8c0-9.3 7.5-16.9 16.8-16.9c9.3 0 16.9 7.6 16.9 16.9v369.8c0 9.3-7.6 16.8-16.9 16.8Z"/></g></g></g></symbol><symbol id="laptop" preserveAspectRatio="none" width="261" height="193.6" viewBox="0 0 261 193.6" overflow="visible"><path class="a" d="M31.1 47.5c0-13.7 0-26.3 0-35.9c0-2.4 1-4.7 2.7-6.4c1.6-1.7 3.9-2.6 6.3-2.6c38.5-0.1 148.5-0.1 180.7-0.1c2.4 0 4.7 .9 6.4 2.6c1.7 1.7 2.6 4 2.6 6.4c.1 31.4 .1 87.5 .1 122.7c9 13.9 18.1 27.9 27.1 41.8c1 1.5 1.5 3.2 1.5 4.9c0 1.2 0 2.4 0 3.5c0 3.7-3 6.7-6.8 6.7h-242.4c-3.8 0-6.8-3-6.8-6.7c0-1.4 0-2.7 0-4.3c0-1.8 .5-3.5 1.5-5c9.1-13.7 18.1-27.3 27.2-41c0-17.1-0.1-54.6-0.1-86.6Z" fill="#fff"/><path class="a" d="M201.3 15c-42.5 0-129.9 0-156.4 .1c0 30.2 0 66.2 .1 98.7v8.2c30.3 0 141.7-0.1 171.1-0.1c0-32.7 0-79.4 0-106.9Z" fill="#fff"/><path class="b" d="M221.6 146.8c-2.6-4.7-5.2-9.4-6.9-12.6h-164c-3.3 6.3-10.3 19.5-14 26.4h192.4c-1.8-3.3-4.7-8.6-7.5-13.8Z" fill="#c6c6c6"/><path class="a" d="M96 167.5c-1 4.5-2.2 10.2-2.9 13.6c13.2 0 59.7 0 75.2 0c-1.1-5.4-3.6-16.8-4.3-19.7c0 0 0-0.3-0.1-0.7h-66.4l-0.1 .7c-0.3 1-0.8 3.3-1.4 6.1Z" fill="#fff"/><path class="c" d="M33.5 47.5v-34.1c0-2 0-3.9 1.2-5.6c1-1.5 2.6-2.5 4.3-2.8c1.3-0.1 2.6-0.1 3.9 0h3.7c13.3 0 26.6 0 39.8-0.1h49.3h47.8h34.9c1.1-0.1 2.3-0.1 3.5 .1c1.7 .2 3.2 1.2 4.3 2.6c1 1.5 1.4 3.3 1.2 5.1c0 1.9 0 3.8 0 5.7c0 8.8 0 17.6 0 26.3c.1 20 .1 39.9 .1 59.8v27.1c-0.1 1.1-0.1 2.2 .1 3.2c.3 .8 .7 1.5 1.2 2.1l1.5 2.3c1.7 2.6 3.3 5.2 5 7.7l10.4 16l5.1 7.9c.9 1.3 1.7 2.6 2.5 3.9c.9 1.2 1.7 2.5 2.4 3.9c.4 1.2 .5 2.5 .4 3.8c.1 1.2 0 2.4-0.3 3.6c-0.6 1.5-2 2.6-3.7 2.7c-0.7 .1-1.5 0-2.2 0h-232.6c-2.7 0-5.3 .1-8 0c-1.2 0-2.3-0.4-3.1-1.2c-1.5-1.6-1.3-3.6-1.3-5.6c-0.1-1.3 0-2.5 .3-3.8c.6-1.4 1.3-2.7 2.3-3.9c1.7-2.6 3.4-5.2 5.2-7.8c3.5-5.3 7-10.6 10.5-15.8c1.7-2.6 3.3-5.1 5-7.6c.8-1.3 1.7-2.6 2.5-3.9c.5-0.7 1-1.4 1.4-2.1c.6-0.7 1-1.4 1.4-2.2c.1-0.9 .1-1.8 .1-2.6v-2.5c0-1.9 0-3.7 0-5.5c0-4.4 0-8.8 0-13.1v-31.3c-0.1-10.8-0.1-21.6-0.1-32.3c0-3.1-4.8-3.1-4.8 0c0 24.2 .1 48.4 .1 72.6v14l.3-1.2c-7.9 12-15.8 24-23.8 35.9c-1.8 2.8-4.3 5.6-4.9 8.9c-0.3 1.5-0.4 3.1-0.3 4.6c-0.1 1.5 0 3 .3 4.5c1.2 4 4.8 6.7 8.9 6.7c3.6 .1 7.2 0 10.8 0h230.6c.3 0 .7 0 1 0c4 0 7.5-2.6 8.8-6.4c.3-1.4 .5-2.8 .4-4.2c.1-1.7 0-3.5-0.5-5.2c-0.5-1.5-1.3-3-2.2-4.4l-3.1-4.7c-3.9-6-7.8-12.1-11.8-18.1c-3.8-5.9-7.6-11.7-11.3-17.5l.3 1.2c0-13.9 0-27.7 0-41.6c0-15.1 0-30.1 0-45.2c0-6.8 0-13.7-0.1-20.5v-9.4c0-2.9 .4-6.2-0.4-9c-0.9-3.4-3.4-6.2-6.7-7.5c-2.2-1-4.5-0.9-6.8-0.9h-11h-29.7h-36h-37.8h-34.6l-27 .1c-2.8 0-5.5 .1-8 1.6c-3 1.8-4.9 4.9-5.4 8.4c-0.1 1.8-0.2 3.5-0.1 5.3v5.7c0 4.2 0 8.4 0 12.7c0 4.5 0 9.1 0 13.6c0 3.1 4.8 3.1 4.8 0Z" fill="#211715"/><path class="c" d="M242.8 178.7h-215.5c-2.9 0-5.8-0.1-8.7 0c-0.1 0-0.3 0-0.4 0c-3.1 0-3.1 4.8 0 4.8h215.5c2.9 0 5.8 0 8.7 0c.2 0 .3 0 .4 0c3.1 0 3.1-4.8 0-4.8Z" fill="#211715"/><path class="c" d="M223.6 145.6c-2.3-4.2-4.5-8.4-6.8-12.6c-0.5-0.8-1.3-1.2-2.1-1.2h-143.8c-6.6 0-13.3-0.2-19.9 0c-0.1 0-0.2 0-0.3 0c-0.8 0-1.6 .4-2.1 1.2c-4.6 8.8-9.3 17.6-14 26.4c-0.4 .8-0.4 1.7 0 2.4c.5 .8 1.2 1.2 2.1 1.2h184.6c2.5 0 5 .1 7.5 0c.1 0 .2 0 .3 0c.9 0 1.7-0.4 2.1-1.2c.4-0.7 .4-1.6 0-2.4c-2.5-4.6-5-9.2-7.6-13.8c-1.4-2.7-5.6-0.3-4.1 2.4c2.5 4.6 5 9.2 7.6 13.9l2-3.7h-184.6c-2.4 0-5-0.1-7.5 0c-0.1 .1-0.2 0-0.3 0l2.1 3.7c4.7-8.8 9.3-17.7 14-26.5l-2.1 1.2h157.3c2.1 0 4.3 .1 6.4 0c.1 0 .2 0 .3 0l-2.1-1.2c2.3 4.2 4.6 8.4 6.9 12.6c1.5 2.7 5.6 .3 4.1-2.4Z" fill="#211715"/><path class="c" d="M95.4 181.7c1.4-6.6 2.8-13.2 4.3-19.7c.3-1.3-0.4-2.6-1.7-3c-1.3-0.3-2.6 .4-2.9 1.7c-1.5 6.6-3 13.1-4.3 19.7c-0.3 1.3 .4 2.6 1.7 3c1.2 .3 2.6-0.4 2.9-1.7Z" fill="#211715"/><path class="c" d="M161.7 162c1.5 6.5 2.9 13.1 4.3 19.7c.3 1.3 1.7 2 2.9 1.7c1.3-0.4 2.1-1.7 1.7-3c-1.3-6.6-2.8-13.1-4.2-19.7c-0.3-0.8-0.9-1.5-1.8-1.7c-0.8-0.2-1.7 .1-2.3 .7c-0.6 .6-0.8 1.5-0.6 2.3Z" fill="#211715"/><path class="c" d="M201.3 12.6h-29.3h-34.7h-35.6h-31.7l-23 .1h-2.1c-1.3 0-2.4 1-2.4 2.4c0 15.4 0 30.9 0 46.4c0 16.1 0 32.3 .1 48.5c0 4 0 8 0 12c0 1.3 1 2.4 2.4 2.4h25.9h36.9l41.2-0.1h37.6h27.3h2.2c1.3 0 2.4-1.1 2.4-2.4v-42.6c0-14.6 0-29.1 0-43.7v-20.6c-0.1-1.3-1.1-2.4-2.4-2.4h-14.8c-3.1 0-3.1 4.8 0 4.8h14.8l-2.4-2.4c0 13 0 26 0 38.9c0 14.9 0 29.8 0 44.7c0 7.8 0 15.5 0 23.3l2.4-2.4h-25.5l-36.7 .1h-41.2h-37.7h-27.7h-2.3l2.4 2.4c-0.1-11-0.1-21.9-0.1-32.9v-48.4c0-8.5 0-17.1 0-25.6l-2.4 2.4l21.7-0.1h30.9h35.4h35.1h30.1h3.2c3.1 0 3.1-4.8 0-4.8Z" fill="#211715"/></symbol><filter id="Filter-0" color-interpolation-filters="sRGB"><feComponentTransfer><feFuncR type="table" tableValues="0 1"/><feFuncG type="table" tableValues="0 1"/><feFuncB type="table" tableValues="0 1"/></feComponentTransfer></filter></defs><use width="249" height="196.5" xlink:href="#laptop" transform="translate(38.5,299.8)" style="animation: 10.5s linear infinite both a0_o; animation-play-state: paused;"/><use x="1091.8" y="474.5" width="167" height="127" xlink:href="#laptop"/><use xlink:href="#flower" width="24.5" height="38.6" transform="translate(1175.3,520.7) translate(-12.3,-19.3)" style="animation: 10.5s linear infinite both a1_t, 10.5s linear infinite both a1_o; animation-play-state: paused;"/><text fill="#dbc746" font-size="14" font-family="'Courier New'" letter-spacing="0" word-spacing="0" font-weight="700" opacity="0" transform="translate(824,98.9) scale(.5,.5)" style="line-height: 16px; animation: 10.5s linear infinite both a2_t, 10.5s linear infinite both a2_o; animation-play-state: paused;">{
    &quot;@context&quot;: &quot;https://www.w3.org/ns/activitystreams&quot;,
    &quot;type&quot;: &quot;Create&quot;,
    &quot;id&quot;: &quot;https://notiz.blog/flower-post&quot;,
    &quot;to&quot;: [&quot;https://alex.kirk.at/users/alex/&quot;],
    &quot;actor&quot;: &quot;https://notiz.blog/users/pfefferle/&quot;,
    &quot;object&quot;: {
        &quot;type&quot;: &quot;Image&quot;,
        &quot;id&quot;: &quot;https://notiz.blog/flower&quot;,
        &quot;attributedTo&quot;: &quot;https://notiz.blog/users/pfefferle/&quot;,
    }
}</text><text fill="#dbc746" font-size="14" font-family="'Courier New'" letter-spacing="0" word-spacing="0" font-weight="700" opacity="0" transform="translate(925.2,495.9) scale(.5,.5)" style="line-height: 16px; animation: 10.5s linear infinite both a3_t, 10.5s linear infinite both a3_o; animation-play-state: paused;">{
    &quot;@context&quot;: &quot;https://www.w3.org/ns/activitystreams&quot;,
    &quot;type&quot;: &quot;Create&quot;,
    &quot;id&quot;: &quot;https://notiz.blog/flower-post&quot;,
    &quot;to&quot;: [&quot;https://alex.kirk.at/users/alex/&quot;],
    &quot;actor&quot;: &quot;https://notiz.blog/users/pfefferle/&quot;,
    &quot;object&quot;: {
        &quot;type&quot;: &quot;Image&quot;,
        &quot;id&quot;: &quot;https://notiz.blog/flower&quot;,
        &quot;attributedTo&quot;: &quot;https://notiz.blog/users/pfefferle/&quot;,
    }
}</text><use x="1021.2" y="85.7" width="189" height="143" xlink:href="#laptop"/><use width="85.8" height="120.9" xlink:href="#phone" opacity="0" transform="translate(107,67)" style="animation: 10.5s linear infinite both a4_o; animation-play-state: paused;"/><use width="41.6" height="41.6" xlink:href="#richtext" opacity="0" filter="url(#Filter-0)" transform="translate(1115.8,141.1) translate(-20.8,-20.8)" style="animation: 10.5s linear infinite both a5_t, 10.5s linear infinite both a5_o; animation-play-state: paused;"/><script>
new IntersectionObserver(function(es){es.forEach(function(e){if(e.isIntersecting){document.getElementById('_a0').getAnimations({subtree:true}).forEach(function(a){a.currentTime=0;a.play()})}else{document.getElementById('_a0').getAnimations({subtree:true}).forEach(function(a){a.pause();a.currentTime=0})}})},{threshold:.25}).observe(document.getElementById('_a0'));</script></svg>