<svg xmlns="http://www.w3.org/2000/svg" xmlns:xlink="http://www.w3.org/1999/xlink" id="_a0" viewBox="0 0 1280 720" onclick="document.getElementById('_a0').getAnimations({subtree:true}).forEach(function(a){a.currentTime=0;a.play()})" style="background: #002b36; white-space: pre;"><style>
@keyframes a0_t { 0% { transform: translate(858px,73.8px) scale(2.3,2.3) translate(-10.7px,-1.7px); } 21.053% { transform: translate(858px,73.8px) scale(2.3,2.3) translate(-10.7px,-1.7px); } 25.658% { transform: translate(533.6px,132px) scale(2.3,2.3) translate(-10.7px,-1.7px); } 100% { transform: translate(533.6px,132px) scale(2.3,2.3) translate(-10.7px,-1.7px); } }
@keyframes a0_v { 0% { visibility: hidden; animation-timing-function: steps(1); } 19.737% { visibility: visible; animation-timing-function: steps(1); } 26.974% { visibility: hidden; animation-timing-function: steps(1); } 100% { visibility: hidden; animation-timing-function: steps(1); } }
@keyframes a1_t { 0% { transform: translate(858px,73.8px) scale(2.3,2.3) translate(-10.7px,-1.7px); } 21.053% { transform: translate(858px,73.8px) scale(2.3,2.3) translate(-10.7px,-1.7px); } 25.658% { transform: translate(701px,535px) scale(2.3,2.3) translate(-10.7px,-1.7px); } 28.947% { transform: translate(637px,604.9px) scale(2.3,2.3) translate(-10.7px,-1.7px); } 36.842% { transform: translate(186.4px,506.4px) scale(4.7,4.7) translate(-10.7px,-1.7px); } 100% { transform: translate(186.4px,506.4px) scale(4.7,4.7) translate(-10.7px,-1.7px); } }
@keyframes a1_v { 0% { visibility: hidden; animation-timing-function: steps(1); } 19.737% { visibility: visible; animation-timing-function: steps(1); } 41.447% { visibility: hidden; animation-timing-function: steps(1); } 100% { visibility: hidden; animation-timing-function: steps(1); } }
@keyframes a2_t { 0% { transform: translate(858px,73.8px) scale(2.3,2.3) translate(-10.7px,-1.7px); } 21.053% { transform: translate(858px,73.8px) scale(2.3,2.3) translate(-10.7px,-1.7px); } 25.658% { transform: translate(1101px,254.9px) scale(2.3,2.3) translate(-10.7px,-1.7px); } 100% { transform: translate(1101px,254.9px) scale(2.3,2.3) translate(-10.7px,-1.7px); } }
@keyframes a2_v { 0% { visibility: hidden; animation-timing-function: steps(1); } 19.737% { visibility: visible; animation-timing-function: steps(1); } 26.974% { visibility: hidden; animation-timing-function: steps(1); } 100% { visibility: hidden; animation-timing-function: steps(1); } }
@keyframes a3_t { 0% { transform: translate(587px,540.3px) scale(2.3,2.3) translate(-10.7px,-1.7px); } 9.21% { transform: translate(587px,540.3px) scale(2.3,2.3) translate(-10.7px,-1.7px); } 15.789% { transform: translate(533.6px,135px) scale(2.3,2.3) translate(-10.7px,-1.7px); } 100% { transform: translate(533.6px,135px) scale(2.3,2.3) translate(-10.7px,-1.7px); } }
@keyframes a3_v { 0% { visibility: hidden; animation-timing-function: steps(1); } 9.211% { visibility: visible; animation-timing-function: steps(1); } 17.105% { visibility: hidden; animation-timing-function: steps(1); } 100% { visibility: hidden; animation-timing-function: steps(1); } }
@keyframes a4_t { 0% { transform: translate(587px,540.3px) scale(.5,.5) translate(-50px,-8px); } 9.21% { transform: translate(587px,540.3px) scale(.5,.5) translate(-50px,-8px); } 15.789% { transform: translate(235px,74.9px) scale(.5,.5) translate(-50px,-8px); } 100% { transform: translate(235px,74.9px) scale(.5,.5) translate(-50px,-8px); } }
@keyframes a4_v { 0% { visibility: hidden; animation-timing-function: steps(1); } 9.211% { visibility: visible; animation-timing-function: steps(1); } 17.105% { visibility: hidden; animation-timing-function: steps(1); } 100% { visibility: hidden; animation-timing-function: steps(1); } }
@keyframes a5_t { 0% { transform: translate(587px,540.3px) scale(.5,.5) translate(-50px,-8px); } 9.21% { transform: translate(587px,540.3px) scale(.5,.5) translate(-50px,-8px); } 15.789% { transform: translate(1101px,254.9px) scale(.5,.5) translate(-50px,-8px); } 100% { transform: translate(1101px,254.9px) scale(.5,.5) translate(-50px,-8px); } }
@keyframes a5_v { 0% { visibility: hidden; animation-timing-function: steps(1); } 9.211% { visibility: visible; animation-timing-function: steps(1); } 17.105% { visibility: hidden; animation-timing-function: steps(1); } 100% { visibility: hidden; animation-timing-function: steps(1); } }
@keyframes a7_t { 0% { transform: translate(186.4px,507.4px); } 2.631% { transform: translate(186.4px,507.4px); animation-timing-function: cubic-bezier(0,0,1,1); } 6.579% { transform: translate(637px,604.9px); animation-timing-function: cubic-bezier(0,0,1,1); } 9.21% { transform: translate(587px,540.3px); } 100% { transform: translate(587px,540.3px); } }
@keyframes a6_t { 0% { transform: scale(1,1) translate(-50px,-8px); } 2.631% { transform: scale(1,1) translate(-50px,-8px); } 6.579% { transform: scale(.5,.5) translate(-50px,-8px); } 100% { transform: scale(.5,.5) translate(-50px,-8px); } }
@keyframes a6_v { 0% { visibility: visible; animation-timing-function: steps(1); } 9.211% { visibility: hidden; animation-timing-function: steps(1); } 100% { visibility: hidden; animation-timing-function: steps(1); } }
@keyframes a6_o { 0% { opacity: 0; } 2.632% { opacity: 1; } 100% { opacity: 1; } }
@keyframes a8_o { 0% { opacity: 0; } 41.447% { opacity: 0; } 43.421% { opacity: 1; } 100% { opacity: 1; } }
@keyframes a9_o { 0% { opacity: 0; } 44.737% { opacity: 0; } 47.368% { opacity: 1; } 100% { opacity: 1; } }
@keyframes a10_o { 0% { opacity: 0; } 44.737% { opacity: 0; } 47.368% { opacity: 1; } 100% { opacity: 1; } }
@keyframes a11_t { 0% { transform: translate(574.3px,570px) scale(.8,.8) translate(-20.8px,-20.8px); } 62.5% { transform: translate(574.3px,570px) scale(.8,.8) translate(-20.8px,-20.8px); } 67.763% { transform: translate(224px,87.5px) scale(.8,.8) translate(-20.8px,-20.8px); } 68.421% { transform: translate(224px,87.5px) scale(.8,.8) translate(-20.8px,-20.8px); } 70.395% { transform: translate(847px,91.5px) scale(.8,.8) translate(-20.8px,-20.8px); } 78.289% { transform: translate(847px,91.5px) scale(.8,.8) translate(-20.8px,-20.8px); } 83.553% { transform: translate(1090px,269.6px) scale(.8,.8) translate(-20.8px,-20.8px); } 100% { transform: translate(1090px,269.6px) scale(.8,.8) translate(-20.8px,-20.8px); } }
@keyframes a11_v { 0% { visibility: hidden; animation-timing-function: steps(1); } 62.5% { visibility: visible; animation-timing-function: steps(1); } 67.763% { visibility: hidden; animation-timing-function: steps(1); } 78.289% { visibility: visible; animation-timing-function: steps(1); } 83.553% { visibility: hidden; animation-timing-function: steps(1); } 100% { visibility: hidden; animation-timing-function: steps(1); } }
@keyframes a12_t { 0% { transform: translate(574.3px,570px) scale(.8,.8) translate(-20.8px,-20.8px); } 62.5% { transform: translate(574.3px,570px) scale(.8,.8) translate(-20.8px,-20.8px); } 67.763% { transform: translate(1090px,269.6px) scale(.8,.8) translate(-20.8px,-20.8px); } 68.421% { transform: translate(1090px,269.6px) scale(.8,.8) translate(-20.8px,-20.8px); } 70.395% { transform: translate(847px,91.5px) scale(.8,.8) translate(-20.8px,-20.8px); } 78.289% { transform: translate(847px,91.5px) scale(.8,.8) translate(-20.8px,-20.8px); } 83.553% { transform: translate(110.4px,187.5px) scale(.8,.8) translate(-20.8px,-20.8px); } 100% { transform: translate(110.4px,187.5px) scale(.8,.8) translate(-20.8px,-20.8px); } }
@keyframes a12_v { 0% { visibility: hidden; animation-timing-function: steps(1); } 62.5% { visibility: visible; animation-timing-function: steps(1); } 67.763% { visibility: hidden; animation-timing-function: steps(1); } 78.289% { visibility: visible; animation-timing-function: steps(1); } 83.553% { visibility: hidden; animation-timing-function: steps(1); } 100% { visibility: hidden; animation-timing-function: steps(1); } }
@keyframes a13_t { 0% { transform: translate(1157.7px,596.9px) scale(.8,.8) translate(-20.8px,-20.8px); } 53.289% { transform: translate(1157.7px,596.9px) scale(.8,.8) translate(-20.8px,-20.8px); } 59.211% { transform: translate(660.3px,637.7px) scale(.8,.8) translate(-20.8px,-20.8px); } 62.5% { transform: translate(574.3px,570px) scale(.8,.8) translate(-20.8px,-20.8px); } 67.105% { transform: translate(522.6px,148px) scale(.8,.8) translate(-20.8px,-20.8px); } 69.737% { transform: translate(522.6px,144.6px) scale(.8,.8) translate(-20.8px,-20.8px); } 72.368% { transform: translate(847px,88.5px) scale(.8,.8) translate(-20.8px,-20.8px); } 78.289% { transform: translate(847px,88.9px) scale(.8,.8) translate(-20.8px,-20.8px); } 83.553% { transform: translate(676.9px,551.7px) scale(.8,.8) translate(-20.8px,-20.8px); } 86.184% { transform: translate(651px,638.4px) scale(.8,.8) translate(-20.8px,-20.8px); } 90.132% { transform: translate(1158.7px,597.8px) scale(.8,.8) translate(-20.8px,-20.8px); } 100% { transform: translate(1158.7px,597.8px) scale(.8,.8) translate(-20.8px,-20.8px); } }
@keyframes a13_o { 0% { opacity: 0; } 51.316% { opacity: 0; } 52.632% { opacity: 1; } 67.763% { opacity: 1; } 69.737% { opacity: 0; animation-timing-function: cubic-bezier(0,0,1,1); } 72.368% { opacity: 0; } 73.684% { opacity: 1; } 100% { opacity: 1; } }
</style><use x="576" y="555" xlink:href="#WordPress" width="100" height="100"/><use x="522.6" y="535.8" xlink:href="#activitypub" width="103.4" height="65.1"/><defs><symbol id="Tusky" preserveAspectRatio="none" width="1075" height="2000" viewBox="0 0 1075 2000" overflow="visible"><g clip-rule="evenodd" fill-rule="evenodd" stroke-linejoin="round" stroke-miterlimit="2" transform="translate(5,911)"><rect y="-911" width="1080" height="1991" fill="#09497b"/><g><rect x="-5" y="948" width="1085" height="160" fill="#041e32"/><g><path d="M723.2 993.4c0 0 0-31.4 17.1-61.4c16.5-28.8 33.6-37.1 33.6-37.1c0 0 9.4 31.3 5.3 61.3c-4.1 30.1-7.7 37.8-7.7 37.8l-48.3-0.6Z" fill="#041e32"/><path d="M728.7 963.9c0 0 20.5-27.6 47.5-42c27.1-14.4 41.5-16 41.5-16c0 0 19.4 34.8-2.2 77.4c-21.6 42.6-27.1 39.2-27.1 39.2l-59.7-58.6Z" fill="#041e32"/><path d="M952.5 993.8c0 0-0.8-29.3 5-53.1c5-20.4 16.6-30.4 16.6-30.4c0 0 23.2 7.2 26 45.9c2.7 38.7-1.1 57.5-1.1 57.5l-46.5-19.9Z" fill="#041e32"/><path d="M149.8 1015.8c0 0 3.4-12.3-21.2-52c-24.7-39.6-72.6-71.8-72.6-71.8c0 0-0.7 75.3 17.8 105.4c18.5 30.1 32.9 41.7 32.9 41.7l43.1-23.2Z" fill="#041e32"/><path d="M1052.1 1039.3c0 0-18.3-27.8-23.3-61.3c-4.8-32.5 13.3-80.6 13.3-80.6c0 0 40.1 31.5 54.8 63.6c14.8 32.1 .1 70.1 .1 70.1l-44.9 8.2Z" fill="#041e32"/><path d="M23.1 920.2c0 0 25.5 7.2 34.2 30.8c8.7 23.5 9.5 37.2 9.5 37.2l-20.5 4.6c0 0-17.1-14.8-21.7-39.1c-4.5-24.4-1.5-33.5-1.5-33.5Z" fill="#041e32"/></g><g><path d="M693.6 382.9c-2.3-3.6-1.4-8.4 2-11c9.2-7 26.4-20.1 35.9-27.2c1.8-1.4 4.1-2 6.3-1.6c2.3 .3 4.3 1.6 5.6 3.5c6.3 9.5 11.3 19.9 14.7 31.2c.7 2.2 .3 4.6-0.9 6.6c-1.2 2-3.1 3.4-5.4 3.9c-11.8 2.4-33.1 6.8-44.3 9.2c-4 .8-8.1-1.5-9.5-5.4c-1.1-3.2-2.7-6.3-4.4-9.2Zm-33.2-25.1c-4-1.1-6.6-5-6.1-9.1c1.7-13 5.3-39 7.2-52.4c.3-2.3 1.5-4.3 3.4-5.7c1.9-1.3 4.2-1.8 6.5-1.4c12.5 2.7 24.5 7.3 35.4 13.4c2 1.2 3.4 3.1 4 5.3c.5 2.2 .1 4.6-1.2 6.5c-7.4 11.4-21.8 33.3-29 44.2c-2.3 3.5-6.9 4.7-10.7 2.8c-3-1.5-6.2-2.7-9.5-3.6Zm-41.8 4.9c-3.6 2-8.1 1.1-10.6-2.2c-7-9.1-20.1-26.4-27.4-36c-1.4-1.9-2-4.2-1.6-6.5c.4-2.3 1.8-4.3 3.7-5.6c9.7-6.1 20.5-10.9 32-14c2.2-0.6 4.5-0.2 6.5 1c1.9 1.2 3.3 3.1 3.7 5.4c2.5 11.6 6.8 32.7 9.2 44.1c.9 4.2-1.6 8.4-5.7 9.7c-3.4 1-6.7 2.4-9.8 4.1Z" fill="#39acff"/></g><g><path d="M430.4 436.1c37.9-15 80.9-16.2 120.8 .4c50.3 20.9 59.8 72.2 66.2 83.4c6.9 12 15.4 19.6 26.8 14.9c13.4-5.6 9.7-22.8 1.2-37.7c-11.6-20.4-37.9-41.8-31.7-71.4c3-14.2 6.9-24.2 9.8-30.5c1-1.7 2.7-2.7 4.6-2.7c1.8 0 3.6 1 4.5 2.6c2.9 4.8 6.3 10.7 8.5 14.4c1.3 2.1 3.8 3.2 6.2 2.5c4.2-1.1 10.8-2.9 16.7-4.4c2-0.6 4.2 .1 5.5 1.7c1.3 1.6 1.6 3.9 .7 5.7c-2.9 5.8-5.6 12.7-5.6 17.8c.1 31.9 24.6 26.9 49.8 56.5c25.3 29.5 55.9 85.3 10.6 140.1c-33.4 40.3-76.3 50.6-88.4 69.8c-12 19.2-25.2 54.3-7.1 94.3c18.1 40 43.9 102.5 46.1 155.1c.8 20-2.3 34.2-5 42.5c-1 3.1-3.1 5.8-5.7 7.5c0-0.6-34-6.6-36.5 2h-6.7c.1-0.6-33.3-8.7-35.8 0h-7.2c0-0.2-33.1-8.6-35.7 0h-6c-3-13.6-12-36.6-18.7-47.1c-7.4 4.3-15.7 7.7-25 9.7c-7.4 1.7-14.8 2.4-22.1 2.5c-8.5 .1-28.1 29.2-29.5 34.8h-3.9c.4-1.1-33.4-8.7-36-0.1h-6.7c.1-0.5-33.2-8.8-35.8-0.1l-7.2-0.1c0-0.1-32.9-8.7-35.5-0.1l-29.8-0.1c-3.3 0-6.5-1.1-9.1-3.1c-7.6-6.2-23.8-21.6-34.3-47.5c-16.2 0-35-2.5-49.3-11.8c-40.9-26.5-48.6-63.2-48.6-63.2l4.2-13.2l18.7 6.1c0 0 8.2 25.1 27.8 36.2c14.9 8.4 28.2 2.6 36-2.9c-2.3-30.2 3-63.2 19.2-100.2c14.8-33.9 36.2-57.4 57-75.1c12.6-0.3 20.8-12.3 19.8-15.6c-3-23.3-7.6-65.3-6.2-90.2c2.3-41.3 8-88.7 36-127.8c-5.3-10-10.6-21.3-12-28.3c-2.6-12.7 2.4-21 10-22.2c4.5-0.7 8.8 2 12.7 7.6c0-7.4 .6-15.9 2.3-22.5c4.1-15.1 12-23 18-22.8c6.4 .2 11.3 9 12.6 20.6c3.2-5.4 7.9-11.2 13.9-12.4c11.7-2.4 16 7.6 16 15.6c0 2.5-0.4 5.6-1.1 8.8Z" fill="#9baec8"/><path d="M518.7 950c1.3-12.4 2.2-25.2 2.2-36.4c0-34.4-20.1-59.1-20.1-59.1c-4.3-5.4-3.5-13.3 1.8-17.6c5.3-4.4 13.2-3.6 17.6 1.7c0 0 25.7 31.3 25.7 75c0 29-5.7 67.9-8.9 87h-10c-6.8 0-14.2-6.2-13.2-12.9c1.6-10.4 3.5-23.8 4.9-37.7Zm-77 50.5c3.2-12.5 14.3-65.5-14.1-115.6c-5.7-9.8-11.8-16.2-18.4-19.7c-10-5.4-20.5-4-29.5-1c-15.5 5.3-27.3 16-27.3 16c-5 4.7-13 4.4-17.6-0.7c-4.7-5.1-4.3-13 .8-17.7c0 0 15.5-14.3 36.1-21.3c15.1-5.1 32.7-6.3 49.3 2.6c10 5.4 19.8 14.6 28.3 29.5c18.3 32.1 22.5 65.3 22 91.1l-1.2 18.9c-0.6 5.1-1.9 9-5.1 12.2c-3.2 3.2-7.6 5.8-12.2 5.7c-3.1 0-6.9 0-11.1 0Zm-113.5-290.8c1 3.3 5.1 4.1 8.6 4.3c2.6 .2 5.2-0.1 7.3-1.1c.8-0.5 1.7-0.9 2-1.8c.1-0.2 .2-0.5 .3-0.7c-0.5-2.8-0.7-4.6-0.7-4.6c-0.6-6.8 4.5-12.9 11.4-13.5c6.9-0.5 12.9 4.6 13.5 11.5c0 0 1.1 18.6 11.1 27.9c6.2 5.7 12.5 3.4 16.5 .9c.3-0.3 .6-0.5 .9-0.7c-0.7-2-1.3-4.2-1.8-6.5c-1.6-6.7 2.6-13.4 9.4-15c6.7-1.5 13.4 2.7 15 9.4c1.9 8.5 5.4 14.1 10.1 16.6c5.5 2.9 12 .9 15.8-3.5c6.2-7.2 5.7-19.5 4.3-31.3c-2.5-21.8-10.7-43.1-10.7-43.1c-2.5-6.4 .7-13.6 7.1-16.1c6.5-2.5 13.7 .7 16.2 7.1c0 0 12.8 33.4 13.1 62.2c.2 14.7-3.2 28.3-11 37.4c-11.2 13.1-30.5 17.9-46.6 9.3c-2.7-1.4-5.3-3.2-7.8-5.5c-11 7.2-29.5 13.9-47.5-2.9c-4.4-4.1-7.8-9.2-10.4-14.5c-5.7 2.7-12.4 3.9-19.2 3.5c-10.7-0.8-20.8-5.6-26.7-13.7c6.8-5.8 13.4-10.9 19.8-15.6Z" fill="#5c6d82"/><path d="M543 1000.6c2.6-8.6 7-20.4 19.4-20.4c12.9 0 16.3 11.4 16.3 19.6c0 .3 0 .6 0 .8h-11.5h-24.2Zm42.9 0c2.5-8.7 6.7-21.4 19.6-21.4c12.9 0 16.4 11.3 16.4 19.6c0 .6-0.1 1.2-0.2 1.8h-2.7c-5.7 0-11.3 0-17 0h-16.1Zm42.5 0c2.5-8.6 6.3-23.5 20.2-23.5c12.9 0 16.4 11.4 16.4 19.6c0 .7-0.1 1.3-0.1 1.9c-1.9 1.3-4.1 2-6.4 2c-6.9 0-17.6 0-30.1 0Zm-226.6-0.2c2.6-8.6 6.4-23.3 20.2-23.3c12.9 0 16.4 11.4 16.4 19.6c0 1.5-0.2 2.7-0.6 3.8c-10.7-0.1-23.5-0.1-36-0.1Zm-42.5-0.1c2.6-8.7 6.9-21.1 19.6-21.1c12.9 0 16.3 11.3 16.3 19.6c0 .5 0 1.1-0.1 1.6c-14.4-0.1-27.7-0.1-35.8-0.1Zm-42.7-0.2c2.6-8.6 7-19.9 19.1-19.9c13 0 16.4 11.4 16.4 19.6c0 .2 0 .3 0 .4h-0.9l-34.6-0.1Z" fill="#fff"/><path d="M134.8 850.2c-2.5-3.3-4.1-7.4-3.2-12.4c1.9-10.5 15.1-13.8 20.9-7.5c2.7 2.9 4.2 6.7 5 10.3c2.5-4.2 6.6-8.3 13.1-8.5c11.2-0.4 15.5 12.9 10.1 22.5c-4.5 8-12.3 12.7-12.3 12.7l-22.9 7.1c-14 2.7-31-1.7-27.3-17.6c1.8-7.8 9.2-8.5 16.6-6.6Z" fill="#5c6e83"/><path d="M581.9 650.5c3.6-2 8-2.4 11.9-1c9.3 3.4 31 9 53.4-0.2c29.8-12.3 51.3-50.9 51.3-50.9c0 0 10.2 24.4 4.1 46.4c-6.1 22-32.6 62.1-71.3 67c-38.7 4.8-58.5-7.9-63.3-27.8c-4-16.2 4-27.9 13.9-33.5Z" fill="#fff"/><path d="M548.5 568c-3.6-1.9-7.5-6.4-10-11.5c-3.1-6.4-4-14.5 4.1-19.8c5.5-3.7 11.8-1.7 17.1 1.6c6.9 4.2 12.7 11 14.8 17.1c2.3 6.5 9.4 9.9 15.9 7.7c6.6-2.3 10-9.4 7.7-16c-4.4-12.7-17.6-27.7-33-34c-11.8-4.9-24.6-5-36.3 2.7c-21.2 14-21 34.8-12.7 51.7c5 10.3 13.4 18.7 20.6 22.6c6.1 3.2 13.7 .9 17-5.2c3.2-6.1 .9-13.7-5.2-16.9Z"/></g></g></g></symbol><symbol id="laptop" height="193.5" overflow="visible" preserveAspectRatio="none" viewBox="0 0 260.9 193.5" width="260.9"><path class="a" d="M31 47.4c0-13.7 0-26.3 0-35.9c0-2.4 1-4.7 2.7-6.4c1.6-1.7 3.9-2.6 6.3-2.6c38.5-0.1 148.5-0.1 180.7-0.1c2.4 0 4.7 .9 6.4 2.6c1.7 1.7 2.6 4 2.6 6.4c.1 31.4 .1 87.5 .1 122.7c9 13.9 18.1 27.9 27.1 41.8c1 1.5 1.5 3.2 1.5 4.9c0 1.2 0 2.4 0 3.5c0 3.7-3 6.7-6.8 6.7h-242.4c-3.8 0-6.8-3-6.8-6.7c0-1.4 0-2.7 0-4.3c0-1.8 .5-3.5 1.5-5c9.1-13.7 18.1-27.3 27.2-41c0-17.1-0.1-54.6-0.1-86.6Z" fill="#fff"/><path class="a" d="M201.2 14.9c-42.5 0-129.9 0-156.4 .1c0 30.2 0 66.2 .1 98.7v8.2c30.3 0 141.7-0.1 171.1-0.1c0-32.7 0-79.4 0-106.9Z" fill="#fff"/><path class="b" d="M221.5 146.7c-2.6-4.7-5.2-9.4-6.9-12.6h-164c-3.3 6.3-10.3 19.5-14 26.4h192.4c-1.8-3.3-4.7-8.6-7.5-13.8Z" fill="#c6c6c6"/><path class="a" d="M95.9 167.4c-1 4.5-2.2 10.2-2.9 13.6c13.2 0 59.7 0 75.2 0c-1.1-5.4-3.6-16.8-4.3-19.7c0 0 0-0.3-0.1-0.7h-66.4l-0.1 .7c-0.3 1-0.8 3.3-1.4 6.1Z" fill="#fff"/><path class="c" d="M33.4 47.4v-34.1c0-2 0-3.9 1.2-5.6c1-1.5 2.6-2.5 4.3-2.8c1.3-0.1 2.6-0.1 3.9 0h3.7c13.3 0 26.6 0 39.8-0.1h49.3h47.8h34.9c1.1-0.1 2.3-0.1 3.5 .1c1.7 .2 3.2 1.2 4.3 2.6c1 1.5 1.4 3.3 1.2 5.1c0 1.9 0 3.8 0 5.7c0 8.8 0 17.6 0 26.3c.1 20 .1 39.9 .1 59.8v27.1c-0.1 1.1-0.1 2.2 .1 3.2c.3 .8 .7 1.5 1.2 2.1l1.5 2.3c1.7 2.6 3.3 5.2 5 7.7l10.4 16l5.1 7.9c.9 1.3 1.7 2.6 2.5 3.9c.9 1.2 1.7 2.5 2.4 3.9c.4 1.2 .5 2.5 .4 3.8c.1 1.2 0 2.4-0.3 3.6c-0.6 1.5-2 2.6-3.7 2.7c-0.7 .1-1.5 0-2.2 0h-232.6c-2.7 0-5.3 .1-8 0c-1.2 0-2.3-0.4-3.1-1.2c-1.5-1.6-1.3-3.6-1.3-5.6c-0.1-1.3 0-2.5 .3-3.8c.6-1.4 1.3-2.7 2.3-3.9c1.7-2.6 3.4-5.2 5.2-7.8c3.5-5.3 7-10.6 10.5-15.8c1.7-2.6 3.3-5.1 5-7.6c.8-1.3 1.7-2.6 2.5-3.9c.5-0.7 1-1.4 1.4-2.1c.6-0.7 1-1.4 1.4-2.2c.1-0.9 .1-1.8 .1-2.6v-2.5c0-1.9 0-3.7 0-5.5c0-4.4 0-8.8 0-13.1v-31.3c-0.1-10.8-0.1-21.6-0.1-32.3c0-3.1-4.8-3.1-4.8 0c0 24.2 .1 48.4 .1 72.6v14l.3-1.2c-7.9 12-15.8 24-23.8 35.9c-1.8 2.8-4.3 5.6-4.9 8.9c-0.3 1.5-0.4 3.1-0.3 4.6c-0.1 1.5 0 3 .3 4.5c1.2 4 4.8 6.7 8.9 6.7c3.6 .1 7.2 0 10.8 0h230.6c.3 0 .7 0 1 0c4 0 7.5-2.6 8.8-6.4c.3-1.4 .5-2.8 .4-4.2c.1-1.7 0-3.5-0.5-5.2c-0.5-1.5-1.3-3-2.2-4.4l-3.1-4.7c-3.9-6-7.8-12.1-11.8-18.1c-3.8-5.9-7.6-11.7-11.3-17.5l.3 1.2c0-13.9 0-27.7 0-41.6c0-15.1 0-30.1 0-45.2c0-6.8 0-13.7-0.1-20.5v-9.4c0-2.9 .4-6.2-0.4-9c-0.9-3.4-3.4-6.2-6.7-7.5c-2.2-1-4.5-0.9-6.8-0.9h-11h-29.7h-36h-37.8h-34.6l-27 .1c-2.8 0-5.5 .1-8 1.6c-3 1.8-4.9 4.9-5.4 8.4c-0.1 1.8-0.2 3.5-0.1 5.3v5.7c0 4.2 0 8.4 0 12.7c0 4.5 0 9.1 0 13.6c0 3.1 4.8 3.1 4.8 0Z" fill="#211715"/><path class="c" d="M242.7 178.6h-215.5c-2.9 0-5.8-0.1-8.7 0c-0.1 0-0.3 0-0.4 0c-3.1 0-3.1 4.8 0 4.8h215.5c2.9 0 5.8 0 8.7 0c.2 0 .3 0 .4 0c3.1 0 3.1-4.8 0-4.8Z" fill="#211715"/><path class="c" d="M223.5 145.5c-2.3-4.2-4.5-8.4-6.8-12.6c-0.5-0.8-1.3-1.2-2.1-1.2h-143.8c-6.6 0-13.3-0.2-19.9 0c-0.1 0-0.2 0-0.3 0c-0.8 0-1.6 .4-2.1 1.2c-4.6 8.8-9.3 17.6-14 26.4c-0.4 .8-0.4 1.7 0 2.4c.5 .8 1.2 1.2 2.1 1.2h184.6c2.5 0 5 .1 7.5 0c.1 0 .2 0 .3 0c.9 0 1.7-0.4 2.1-1.2c.4-0.7 .4-1.6 0-2.4c-2.5-4.6-5-9.2-7.6-13.8c-1.4-2.8-5.6-0.3-4.1 2.4c2.5 4.6 5 9.2 7.6 13.9l2-3.7h-184.6c-2.4 0-5-0.1-7.5 0c-0.1 .1-0.2 0-0.3 0l2.1 3.7c4.7-8.8 9.3-17.7 14-26.5l-2.1 1.2h157.3c2.1 0 4.3 .1 6.4 0c.1 0 .2 0 .3 0l-2.1-1.2c2.3 4.2 4.6 8.4 6.9 12.6c1.5 2.7 5.6 .3 4.1-2.4Z" fill="#211715"/><path class="c" d="M95.3 181.6c1.4-6.6 2.8-13.2 4.3-19.7c.3-1.3-0.4-2.6-1.7-3c-1.3-0.3-2.6 .4-2.9 1.7c-1.5 6.6-3 13.1-4.3 19.7c-0.3 1.3 .4 2.6 1.7 3c1.2 .3 2.6-0.4 2.9-1.7Z" fill="#211715"/><path class="c" d="M161.6 161.9c1.5 6.5 2.9 13.1 4.3 19.7c.3 1.3 1.7 2 2.9 1.7c1.3-0.4 2.1-1.7 1.7-3c-1.3-6.6-2.8-13.1-4.2-19.7c-0.3-0.8-0.9-1.5-1.8-1.7c-0.8-0.2-1.7 .1-2.3 .7c-0.6 .6-0.8 1.5-0.6 2.3Z" fill="#211715"/><path class="c" d="M201.2 12.5h-29.3h-34.7h-35.6h-31.7l-23 .1h-2.1c-1.3 0-2.4 1-2.4 2.4c0 15.4 0 30.9 0 46.4c0 16.1 0 32.3 .1 48.5c0 4 0 8 0 12c0 1.3 1 2.4 2.4 2.4h25.9h36.9l41.2-0.1h37.6h27.3h2.2c1.3 0 2.4-1.1 2.4-2.4v-42.6c0-14.6 0-29.1 0-43.7v-20.6c-0.1-1.3-1.1-2.4-2.4-2.4h-14.8c-3.1 0-3.1 4.8 0 4.8h14.8l-2.4-2.4c0 13 0 26 0 38.9c0 14.9 0 29.8 0 44.7c0 7.8 0 15.5 0 23.3l2.4-2.4h-25.5l-36.7 .1h-41.2h-37.7h-27.7h-2.3l2.4 2.4c-0.1-11-0.1-21.9-0.1-32.9v-48.4c0-8.5 0-17.1 0-25.6l-2.4 2.4l21.7-0.1h30.9h35.4h35.1h30.1h3.2c3.1 0 3.1-4.8 0-4.8Z" fill="#211715"/></symbol><symbol id="richtext" height="16" overflow="visible" preserveAspectRatio="none" viewBox="0 0 12 16" width="12"><rect x="1" y="1" width="10" height="14" fill="#fff"/><path d="M5 4.2c0 .5-0.3 .8-0.8 .8c-0.4 0-0.7-0.3-0.7-0.8c0-0.4 .3-0.7 .8-0.7c.4 0 .7 .3 .7 .8Zm-0.9 1.6l1.4 .9l1.8-1.9c.1-0.1 .2-0.1 .3 0l1.9 .9v1.8c0 .3-0.2 .5-0.5 .5h-6c-0.3 0-0.5-0.2-0.5-0.5v-0.5c0 0 1.5-1.3 1.6-1.2Zm-1.1 3.2c-0.3 0-0.5 .2-0.5 .5c0 .3 .2 .5 .5 .5h6c.3 0 .5-0.2 .5-0.5c0-0.3-0.2-0.5-0.5-0.5h-6Zm0 2c-0.3 0-0.5 .2-0.5 .5c0 .3 .2 .5 .5 .5h3c.3 0 .5-0.2 .5-0.5c0-0.3-0.2-0.5-0.5-0.5h-3Z"/><path d="M0 2c0-1.1 .9-2 2-2h8c1.1 0 2 .9 2 2v12c0 1.1-0.9 2-2 2h-8c-1.1 0-2-0.9-2-2v-12Zm10-1h-8c-0.6 0-1 .4-1 1v12c0 .6 .4 1 1 1h8c.6 0 1-0.4 1-1v-12c0-0.6-0.4-1-1-1Z"/></symbol><symbol id="pixelfed" height="39.2" overflow="visible" preserveAspectRatio="none" viewBox="0 0 39.2 39.2" width="39.2"><g fill="none"><g><g><path d="M17.5 18.7c0 .3 0 .6 0 .9c0 3.3-2.7 6-6 6h-5.4c-3.4 0-6.1-2.7-6.1-6c0-3 2.2-5.6 5.1-6c0 0 0 0 0 0c0 0 0 0 0 0c.3-0.1 .6-0.1 1-0.1h5.4c3 0 5.5 2.3 6 5.2Z" fill="#bf3f8a"/><path d="M25.6 5.1c-0.5-2.9-3-5.1-6-5.1c-3 0-5.5 2.2-6 5.1c.2 .2 .5 .4 .7 .6l3.8 3.8c.7 .7 1.2 1.5 1.5 2.4c.4 1.2 .4 2.6 0 3.9c-0.2 .6-0.5 1.2-0.9 1.7c.3 0 .6 0 .9 0c.3 0 .6 0 .8 0c.7-0.1 1.3-0.3 1.8-0.6c1.2-0.6 2.2-1.6 2.8-2.8c.4-0.8 .6-1.7 .6-2.6v-5.4c0-0.4 0-0.7 0-1Z" fill="#ed8611"/><path d="M24.8 33.4l-3.8-3.8c-0.7-0.7-1.1-1.5-1.4-2.3c-0.5-1.3-0.5-2.7 0-4c.2-0.6 .5-1.1 .8-1.6c-0.2-0.1-0.5-0.1-0.8-0.1c-0.3 0-0.6 0-0.9 .1c-0.6 .1-1.2 .2-1.8 .5c-1.2 .6-2.2 1.6-2.8 2.8c-0.4 .8-0.6 1.7-0.6 2.7v5.4c0 .3 0 .6 .1 .9c.5 2.9 3 5.1 6 5.1c3 0 5.5-2.2 6-5.1c-0.3-0.2-0.5-0.4-0.8-0.6Z" fill="#2e86dd"/><path d="M34 13.6c-0.2 .2-0.4 .5-0.6 .7l-3.8 3.8c-0.7 .7-1.5 1.2-2.3 1.5c-1.3 .4-2.7 .4-4 0c-0.6-0.2-1.1-0.5-1.6-0.9c-0.1 .3-0.1 .6-0.1 .9c0 .3 0 .6 .1 .8c.1 .7 .2 1.3 .5 1.8c.6 1.2 1.6 2.2 2.8 2.8c.8 .4 1.7 .6 2.7 .6h5.4c.3 0 .6 0 .9 0c2.9-0.5 5.1-3 5.1-6c0-3-2.2-5.6-5.1-6Z" fill="#9ee85d"/><path d="M33.4 5.7c-2.1-2.1-5.5-2.3-7.8-0.6c0 .3 0 .6 0 1v5.4c0 .9-0.2 1.8-0.6 2.6c-0.6 1.2-1.6 2.2-2.8 2.8c-0.5 .3-1.1 .5-1.8 .6c.2 .2 .4 .4 .6 .6c.2 .2 .4 .4 .7 .6c.5 .4 1 .7 1.6 .9c1.3 .4 2.7 .4 4 0c.8-0.3 1.6-0.8 2.3-1.5l3.8-3.8c.2-0.2 .4-0.5 .6-0.7c1.7-2.4 1.5-5.7-0.6-7.9Z" fill="#f0c51a"/><path d="M34 25.6c-0.3 0-0.6 0-0.9 0h-5.4c-1 0-1.9-0.2-2.7-0.6c-1.2-0.6-2.2-1.6-2.8-2.8c-0.3-0.5-0.4-1.1-0.5-1.8c-0.3 .2-0.5 .4-0.7 .6c-0.2 .2-0.4 .4-0.6 .7c-0.3 .5-0.6 1-0.8 1.6c-0.5 1.3-0.5 2.7 0 4c.3 .8 .7 1.6 1.4 2.3l3.8 3.8c.3 .2 .5 .4 .8 .6c2.3 1.7 5.7 1.5 7.8-0.6c2.1-2.1 2.3-5.5 .6-7.8Z" fill="#49b85f"/><path d="M19.6 11.9c-0.3-0.9-0.8-1.7-1.5-2.3l-3.8-3.9c-0.2-0.2-0.5-0.4-0.7-0.6c-2.4-1.7-5.7-1.5-7.9 .6c-2.1 2.2-2.3 5.5-0.6 7.9c.3-0.1 .6-0.1 1-0.1h5.4c3 0 5.5 2.3 6 5.2c0 0 0 0 0 0c.2-0.2 .4-0.4 .6-0.6c.2-0.2 .4-0.4 .6-0.6c.4-0.5 .7-1.1 .9-1.7c.4-1.3 .4-2.7 0-3.9Z" fill="#ed5b47"/><path d="M18.1 21c-0.2-0.2-0.4-0.4-0.6-0.6c-0.5-0.3-1.1-0.6-1.7-0.8c-1.2-0.5-2.7-0.5-3.9 0c-0.9 .3-1.7 .7-2.3 1.4l-3.9 3.8c-0.2 .2-0.4 .5-0.6 .8c-1.7 2.3-1.5 5.7 .6 7.8c2.2 2.1 5.5 2.3 7.9 .6c-0.1-0.3-0.1-0.6-0.1-0.9v-5.4c0-1 .2-1.9 .6-2.7c.6-1.2 1.6-2.2 2.8-2.8c.6-0.3 1.2-0.4 1.8-0.5c-0.2-0.3-0.4-0.5-0.6-0.7Z" fill="#8d59a8"/></g><path d="M18.4 24.3h3.4c3.2 0 5.9-2.6 5.9-5.7c0-3.2-2.7-5.8-5.9-5.8h-4.9c-1.9 0-3.4 1.5-3.4 3.3v12.9Z" fill="#fff"/></g></g></symbol><symbol id="friends" height="221.4" overflow="visible" preserveAspectRatio="none" viewBox="0 0 235.8 221.4" width="235.8"><path fill="#aec8d5" fill-rule="evenodd" d="M108.5 136.4c0 0 9.9-2.4 19-8c7.8-4.8 23-19 23-19c0 0 11.4 0 16-1c35.8-8.2 72.5-27.8 69-58c-3.6-30.9-55.1-56.6-108-49c-22.1 3.2-68.2 11.1-74 51c-5.8 39.8 45 48.6 60 54c8.8 3.2 11 3 11 3c0 0-2.7 8.2-6 14c-4.1 7.1-10 13-10 13Z"/><g transform="translate(-9.5,-8.6)"><path fill="url(#Gradient-0)" fill-rule="evenodd" stroke="#000" stroke-width="4.8" d="M132.3 90.9c-13-36-62.2-26.9-93.4-2.1c-46.8 37.3-27.1 88.9-13.2 112.1c14.6 24.3 35 36.6 49.2 24.2c8.7-7.5 12.1-15.9 2.7-31.1c-3.4-5.5-1.2-24 8.3-28.4c8.7-3.9 9.1-16.2-2.7-15.9c-7.9 .3-29.4-1.4-22.2-4.8c6.6-3 82.1-24.1 71.3-54Z"/><path fill="#fff" fill-rule="evenodd" stroke="#000" stroke-width="2.8" d="M71.4 90.2c0-1.5-1.1-2.7-2.4-2.7c-1.3 0-2.4 1.2-2.4 2.7c0 1.6 1.1 2.8 2.4 2.8c1.3 0 2.4-1.2 2.4-2.8Z"/><path fill="#fff" fill-rule="evenodd" stroke="#000" stroke-width="2.8" d="M57.6 96.1c0-1.7-1.1-3.1-2.4-3.1c-1.4 0-2.5 1.4-2.5 3.1c0 1.7 1.1 3.1 2.5 3.1c1.3 0 2.4-1.4 2.4-3.1Z"/></g></symbol><symbol id="activitypub" height="18" overflow="visible" preserveAspectRatio="none" viewBox="0 0 28.6 18" width="28.6"><g transform="translate(0,133.5)"><g fill="url(#Gradient-1)" transform="translate(22.1,-124.5) scale(.97898,.97898) translate(-3248.3,1355.4)"><g transform="translate(3248.3,-1355.4) scale(.255368,.255368) translate(-2476.4,901.1)"><path d="M2450.4-937.1l52 30v12l-52 30v-12l41.6-24l-41.6-24Z" fill-rule="evenodd"/><path d="M2450.4-913.1l20.8 12l-20.8 12Z" fill-rule="evenodd"/></g></g><g fill="url(#Gradient-2)" transform="translate(6.5,-124.5) scale(.97898,.97898) translate(-3232.4,1355.4)"><path d="M49.1-504.6l-49.1 28.4v11.3l39.3-22.7v45.4l9.8 5.7Zm-19.6 34l-19.7 11.4l19.7 11.3Z" fill="url(#Gradient-3)" fill-rule="evenodd" transform="translate(3232.4,-1355.4) scale(.270264,.270264) translate(-24.5,470.6)"/></g></g></symbol><symbol id="Mastodon" height="79" overflow="visible" preserveAspectRatio="none" viewBox="0 0 74 79" width="74"><path d="M73.8 17.5c-1.1-8.5-8.5-15.2-17.3-16.5c-1.5-0.2-7.1-1-20-1h-0.1c-13 0-15.8 .8-17.3 1c-8.5 1.3-16.3 7.3-18.2 15.9c-0.9 4.2-1 8.9-0.8 13.2c.2 6.2 .3 12.3 .8 18.5c.4 4 1.1 8.1 2 12.1c1.8 7.3 9.1 13.5 16.2 16c7.6 2.6 15.8 3 23.7 1.2c.9-0.2 1.7-0.4 2.6-0.7c1.9-0.6 4.1-1.3 5.8-2.5c0 0 0 0 0 0c0 0 0-0.1 0-0.1v-6c0 0 0 0 0 0c0-0.1 0-0.1 0-0.1c-0.1 0-0.1 0-0.1 0c0 0-0.1 0-0.1 0c-5 1.2-10.2 1.8-15.3 1.8c-9 0-11.4-4.3-12-6c-0.6-1.5-0.9-3.1-1.1-4.7c0-0.1 0-0.1 0-0.1c0 0 .1-0.1 .1-0.1c0 0 0 0 .1 0c0 0 0 0 0 0c5 1.2 10.1 1.8 15.2 1.8c1.2 0 2.4 0 3.6 0c5.1-0.2 10.5-0.5 15.6-1.4c.1-0.1 .2-0.1 .3-0.1c8-1.5 15.5-6.3 16.3-18.5c0-0.4 .1-5 .1-5.5c0-1.6 .6-11.9-0.1-18.2Z" fill="url(#Gradient-4)"/><path d="M61.2 27v21.1h-8.3v-20.5c0-4.3-1.8-6.5-5.5-6.5c-4 0-6 2.6-6 7.8v11.2h-8.3v-11.2c0-5.2-2-7.8-6-7.8c-3.6 0-5.5 2.2-5.5 6.5v20.5h-8.3v-21.1c0-4.3 1.1-7.7 3.3-10.2c2.3-2.6 5.2-3.9 8.9-3.9c4.3 0 7.5 1.7 9.7 5l2.1 3.4l2.1-3.4c2.1-3.3 5.3-5 9.6-5c3.7 0 6.7 1.3 9 3.9c2.2 2.5 3.3 5.9 3.2 10.2Z" fill="#fff"/></symbol><symbol id="WordPress" height="100" overflow="visible" preserveAspectRatio="none" viewBox="0 0 100 100" width="100"><g data-name="Layer" transform="translate(50,50) scale(.5,.5) translate(-126.6,-126.6)"><g clip-path="url(#ClipPath-1)"><path d="M201.2 85.8c6.6 12.1 10.4 26 10.4 40.8c0 31.4-17 58.7-42.3 73.4l26-75c4.8-12.1 6.4-21.8 6.4-30.4c0-3.1-0.2-6-0.5-8.8m-62.9 1c5.1-0.3 9.7-0.8 9.7-0.8c4.6-0.6 4.1-7.3-0.5-7c0 0-13.8 1-22.6 1c-8.4 0-22.4-1-22.4-1c-4.6-0.3-5.1 6.7-0.6 7c0 0 4.4 .5 9 .8l13.2 36.2l-18.6 55.8l-30.9-92c5.1-0.3 9.7-0.8 9.7-0.8c4.6-0.6 4-7.3-0.6-7c0 0-13.7 1-22.6 1c-1.6 0-3.5 0-5.5-0.1c15.2-23 41.3-38.3 71-38.3c22.1 0 42.3 8.5 57.4 22.4c-0.4-0.1-0.7-0.1-1.1-0.1c-8.4 0-14.3 7.3-14.3 15.1c0 7 4.1 12.9 8.4 19.9c3.2 5.6 7 12.9 7 23.4c0 7.3-2.8 15.7-6.5 27.5l-8.5 28.3Zm-11.7 124.8c-8.3 0-16.4-1.2-24-3.5l25.5-74.1l26.1 71.6c.2 .4 .4 .8 .6 1.2c-8.8 3.1-18.3 4.8-28.2 4.8m-85-85c0-12.3 2.7-24 7.4-34.6l40.5 111.1c-28.3-13.8-47.9-42.9-47.9-76.5m85-94.5c-52.1 0-94.5 42.4-94.5 94.5c0 52.1 42.4 94.5 94.5 94.5c52.1 0 94.5-42.4 94.5-94.5c0-52.1-42.4-94.5-94.5-94.5" fill="#3858e9"/></g></g></symbol><symbol id="phone" preserveAspectRatio="none" width="43" height="68" viewBox="0 0 43 68" overflow="visible"><g transform="translate(-29,-17)"><rect x="32" y="19" width="37" height="63" fill="#fff"/><path d="M72 23.2c0-3.4-2.8-6.2-6.2-6.2h-30.6c-3.4 0-6.2 2.8-6.2 6.2v55.6c0 3.4 2.8 6.2 6.2 6.2h30.6c3.4 0 6.2-2.8 6.2-6.2v-55.6Zm-4 55.6c0 1.2-1 2.2-2.2 2.2h-30.6c-1.2 0-2.2-1-2.2-2.2v-55.6c0-1.2 1-2.2 2.2-2.2h30.6c1.2 0 2.2 1 2.2 2.2v55.6Z"/><path d="M65 26c0-1.1-0.9-2-2-2h-25c-1.1 0-2 .9-2 2v42c0 1.1 .9 2 2 2h25c1.1 0 2-0.9 2-2v-42Zm-25 2h21v38h-21v-38Z"/><ellipse cx="50.3" cy="75" rx="3.5" ry="3.5"/></g></symbol><symbol id="richtext-2" preserveAspectRatio="none" width="28" height="26" viewBox="0 0 28 26" overflow="visible"><g transform="translate(-2,-2)"><path d="M22 4h7c.6 0 1-0.4 1-1c0-0.6-0.4-1-1-1h-7c-0.6 0-1 .4-1 1c0 .6 .4 1 1 1Z"/><path d="M29 8h-7c-0.6 0-1 .4-1 1c0 .6 .4 1 1 1h7c.6 0 1-0.4 1-1c0-0.6-0.4-1-1-1Z"/><path d="M29 14h-7c-0.6 0-1 .4-1 1c0 .6 .4 1 1 1h7c.6 0 1-0.4 1-1c0-0.6-0.4-1-1-1Z"/><path d="M29 20h-26c-0.6 0-1 .4-1 1c0 .6 .4 1 1 1h26c.6 0 1-0.4 1-1c0-0.6-0.4-1-1-1Z"/><path d="M29 26h-26c-0.6 0-1 .4-1 1c0 .6 .4 1 1 1h26c.6 0 1-0.4 1-1c0-0.6-0.4-1-1-1Z"/><path d="M8.6 8.2l3.4 2.6l5-3.6v-4.2c0-0.6-0.4-1-1-1h-13c-0.6 0-1 .4-1 1v9.3l5.4-4c.4-0.4 .8-0.4 1.2-0.1Zm3.4-4.2c1.1 0 2 .9 2 2c0 1.1-0.9 2-2 2c-1.1 0-2-0.9-2-2c0-1.1 .9-2 2-2Z"/><path d="M3 16h13c.6 0 1-0.4 1-1v-5.3l-4.4 3.2c-0.4 .3-0.8 .2-1.2 0l-3.4-2.6l-6 4.5v.2c0 .6 .4 1 1 1Z"/></g></symbol><filter id="Filter-0" x="-10%" y="-10%" width="126%" height="120%" color-interpolation-filters="sRGB"><feComponentTransfer><feFuncR type="table" tableValues="0.66 0.34"/><feFuncG type="table" tableValues="0.66 0.34"/><feFuncB type="table" tableValues="0.66 0.34"/></feComponentTransfer><feColorMatrix values="0.909 0.1154 0.0284 0 0 0.0524 0.9529 0.0252 0 0 0.0408 0.0801 0.8697 0 0 0 0 0 1 0"/></filter><filter id="Filter-1" color-interpolation-filters="sRGB"><feComponentTransfer><feFuncR type="table" tableValues="1 0"/><feFuncG type="table" tableValues="1 0"/><feFuncB type="table" tableValues="1 0"/></feComponentTransfer></filter><linearGradient id="Gradient-0" x1="58.7" y1="223.1" x2="28.3" y2="173.1" gradientUnits="userSpaceOnUse"><stop offset="0" stop-color="#2e5d7c"/><stop offset="1" stop-color="#6c9ab2"/></linearGradient><linearGradient id="Gradient-1" x1="3241.7" y1="-1355.4" x2="3255" y2="-1355.4" gradientUnits="userSpaceOnUse"><stop offset="0" stop-color="#f1007e"/></linearGradient><linearGradient id="Gradient-2" x1="3225.8" y1="-1355.4" x2="3239" y2="-1355.4" gradientUnits="userSpaceOnUse"><stop offset="0" stop-color="#6d6d6d"/></linearGradient><linearGradient id="Gradient-3" x1="3225.8" y1="-1355.4" x2="3239" y2="-1355.4" gradientUnits="userSpaceOnUse" gradientTransform="matrix(3.7 0 0 3.7 -11935.6 4544.7)"><stop offset="0" stop-color="#6d6d6d"/></linearGradient><linearGradient id="Gradient-4" x1="37.1" y1="0" x2="37.1" y2="79" gradientUnits="userSpaceOnUse"><stop offset="0" stop-color="#6364ff"/><stop offset="1" stop-color="#563acc"/></linearGradient><clipPath id="ClipPath-1"><path d="M0 0h252v252h-252Z"/></clipPath></defs><use x="640" y="509.1" xlink:href="#friends" width="97.8" height="91.8"/><use x="66" y="148" xlink:href="#Mastodon" width="82" height="84"/><use x="187" y="49" xlink:href="#Mastodon" width="74" height="79"/><use x="485.6" y="108.5" xlink:href="#Mastodon" width="74" height="79"/><use x="614" y="38" xlink:href="#Mastodon" width="74" height="79"/><use x="810" y="52" xlink:href="#Mastodon" width="74" height="79"/><use x="1053" y="230.1" xlink:href="#Mastodon" width="74" height="79"/><use x="323" y="55.8" xlink:href="#pixelfed" width="75.2" height="75.2"/><use x="1114.8" y="70.9" xlink:href="#pixelfed" width="75.2" height="75.2"/><use x="700.2" y="154.9" xlink:href="#pixelfed" width="75.2" height="75.2"/><use x="72.8" y="322.4" xlink:href="#pixelfed" width="75.2" height="75.2"/><use x="34" y="471.6" xlink:href="#laptop" width="260.9" height="193.5"/><g filter="url(#Filter-0)" visibility="hidden" transform="translate(858,73.8) scale(2.33333,2.33333) translate(-10.7,-1.7)" style="animation: 15.2s linear infinite both a0_t, 15.2s linear infinite forwards a0_v; animation-play-state: paused;"><rect x="1" y="1" width="10" height="14" fill="#fff"/><path d="M5 4.2c0 .5-0.3 .8-0.8 .8c-0.4 0-0.7-0.3-0.7-0.8c0-0.4 .3-0.7 .8-0.7c.4 0 .7 .3 .7 .8Zm-0.9 1.6l1.4 .9l1.8-1.9c.1-0.1 .2-0.1 .3 0l1.9 .9v1.8c0 .3-0.2 .5-0.5 .5h-6c-0.3 0-0.5-0.2-0.5-0.5v-0.5c0 0 1.5-1.3 1.6-1.2Zm-1.1 3.2c-0.3 0-0.5 .2-0.5 .5c0 .3 .2 .5 .5 .5h6c.3 0 .5-0.2 .5-0.5c0-0.3-0.2-0.5-0.5-0.5h-6Zm0 2c-0.3 0-0.5 .2-0.5 .5c0 .3 .2 .5 .5 .5h3c.3 0 .5-0.2 .5-0.5c0-0.3-0.2-0.5-0.5-0.5h-3Z"/><path d="M0 2c0-1.1 .9-2 2-2h8c1.1 0 2 .9 2 2v12c0 1.1-0.9 2-2 2h-8c-1.1 0-2-0.9-2-2v-12Zm10-1h-8c-0.6 0-1 .4-1 1v12c0 .6 .4 1 1 1h8c.6 0 1-0.4 1-1v-12c0-0.6-0.4-1-1-1Z"/></g><g filter="url(#Filter-0)" visibility="hidden" transform="translate(858,73.8) scale(2.33333,2.33333) translate(-10.7,-1.7)" style="animation: 15.2s linear infinite both a1_t, 15.2s linear infinite forwards a1_v; animation-play-state: paused;"><rect x="1" y="1" width="10" height="14" fill="#fff"/><path d="M5 4.2c0 .5-0.3 .8-0.8 .8c-0.4 0-0.7-0.3-0.7-0.8c0-0.4 .3-0.7 .8-0.7c.4 0 .7 .3 .7 .8Zm-0.9 1.6l1.4 .9l1.8-1.9c.1-0.1 .2-0.1 .3 0l1.9 .9v1.8c0 .3-0.2 .5-0.5 .5h-6c-0.3 0-0.5-0.2-0.5-0.5v-0.5c0 0 1.5-1.3 1.6-1.2Zm-1.1 3.2c-0.3 0-0.5 .2-0.5 .5c0 .3 .2 .5 .5 .5h6c.3 0 .5-0.2 .5-0.5c0-0.3-0.2-0.5-0.5-0.5h-6Zm0 2c-0.3 0-0.5 .2-0.5 .5c0 .3 .2 .5 .5 .5h3c.3 0 .5-0.2 .5-0.5c0-0.3-0.2-0.5-0.5-0.5h-3Z"/><path d="M0 2c0-1.1 .9-2 2-2h8c1.1 0 2 .9 2 2v12c0 1.1-0.9 2-2 2h-8c-1.1 0-2-0.9-2-2v-12Zm10-1h-8c-0.6 0-1 .4-1 1v12c0 .6 .4 1 1 1h8c.6 0 1-0.4 1-1v-12c0-0.6-0.4-1-1-1Z"/></g><g filter="url(#Filter-0)" visibility="hidden" transform="translate(858,73.8) scale(2.33333,2.33333) translate(-10.7,-1.7)" style="animation: 15.2s linear infinite both a2_t, 15.2s linear infinite forwards a2_v; animation-play-state: paused;"><rect x="1" y="1" width="10" height="14" fill="#fff"/><path d="M5 4.2c0 .5-0.3 .8-0.8 .8c-0.4 0-0.7-0.3-0.7-0.8c0-0.4 .3-0.7 .8-0.7c.4 0 .7 .3 .7 .8Zm-0.9 1.6l1.4 .9l1.8-1.9c.1-0.1 .2-0.1 .3 0l1.9 .9v1.8c0 .3-0.2 .5-0.5 .5h-6c-0.3 0-0.5-0.2-0.5-0.5v-0.5c0 0 1.5-1.3 1.6-1.2Zm-1.1 3.2c-0.3 0-0.5 .2-0.5 .5c0 .3 .2 .5 .5 .5h6c.3 0 .5-0.2 .5-0.5c0-0.3-0.2-0.5-0.5-0.5h-6Zm0 2c-0.3 0-0.5 .2-0.5 .5c0 .3 .2 .5 .5 .5h3c.3 0 .5-0.2 .5-0.5c0-0.3-0.2-0.5-0.5-0.5h-3Z"/><path d="M0 2c0-1.1 .9-2 2-2h8c1.1 0 2 .9 2 2v12c0 1.1-0.9 2-2 2h-8c-1.1 0-2-0.9-2-2v-12Zm10-1h-8c-0.6 0-1 .4-1 1v12c0 .6 .4 1 1 1h8c.6 0 1-0.4 1-1v-12c0-0.6-0.4-1-1-1Z"/></g><g visibility="hidden" transform="translate(587,540.3) scale(2.33333,2.33333) translate(-10.7,-1.7)" style="animation: 15.2s linear infinite both a3_t, 15.2s linear infinite forwards a3_v; animation-play-state: paused;"><rect x="1" y="1" width="10" height="14" fill="#fff"/><path d="M5 4.2c0 .5-0.3 .8-0.8 .8c-0.4 0-0.7-0.3-0.7-0.8c0-0.4 .3-0.7 .8-0.7c.4 0 .7 .3 .7 .8Zm-0.9 1.6l1.4 .9l1.8-1.9c.1-0.1 .2-0.1 .3 0l1.9 .9v1.8c0 .3-0.2 .5-0.5 .5h-6c-0.3 0-0.5-0.2-0.5-0.5v-0.5c0 0 1.5-1.3 1.6-1.2Zm-1.1 3.2c-0.3 0-0.5 .2-0.5 .5c0 .3 .2 .5 .5 .5h6c.3 0 .5-0.2 .5-0.5c0-0.3-0.2-0.5-0.5-0.5h-6Zm0 2c-0.3 0-0.5 .2-0.5 .5c0 .3 .2 .5 .5 .5h3c.3 0 .5-0.2 .5-0.5c0-0.3-0.2-0.5-0.5-0.5h-3Z"/><path d="M0 2c0-1.1 .9-2 2-2h8c1.1 0 2 .9 2 2v12c0 1.1-0.9 2-2 2h-8c-1.1 0-2-0.9-2-2v-12Zm10-1h-8c-0.6 0-1 .4-1 1v12c0 .6 .4 1 1 1h8c.6 0 1-0.4 1-1v-12c0-0.6-0.4-1-1-1Z"/></g><use xlink:href="#richtext" width="56" height="74.7" visibility="hidden" transform="translate(587,540.3) scale(.5,.5) translate(-50,-8)" style="animation: 15.2s linear infinite both a4_t, 15.2s linear infinite forwards a4_v; animation-play-state: paused;"/><use xlink:href="#richtext" width="56" height="74.7" visibility="hidden" transform="translate(587,540.3) scale(.5,.5) translate(-50,-8)" style="animation: 15.2s linear infinite both a5_t, 15.2s linear infinite forwards a5_v; animation-play-state: paused;"/><g style="animation: 15.2s linear infinite both a7_t; animation-play-state: paused;"><use xlink:href="#richtext" width="56" height="74.7" opacity="0" visibility="visible" transform="translate(186.4,507.4) translate(-50,-8)" style="animation: 15.2s linear infinite both a6_t, 15.2s linear infinite forwards a6_v, 15.2s linear infinite both a6_o; animation-play-state: paused;"/></g><text fill="#211715" font-size="40" font-family="Avenir" letter-spacing="0" word-spacing="0" stroke="#fff" font-weight="900" opacity="0" transform="translate(614,650.4)" style="line-height: 16px; animation: 15.2s linear infinite both a8_o; animation-play-state: paused;">EMA</text><use width="85.8" height="120.9" xlink:href="#phone" opacity="0" transform="translate(1114.8,555)" style="animation: 15.2s linear infinite both a9_o; animation-play-state: paused;"/><use width="42.9" height="68.8" xlink:href="#Tusky" opacity="0" transform="translate(1136,574.2)" style="animation: 15.2s linear infinite both a10_o; animation-play-state: paused;"/><use width="41.6" height="41.6" xlink:href="#richtext-2" filter="url(#Filter-1)" visibility="hidden" transform="translate(574.3,570) scale(.8,.8) translate(-20.8,-20.8)" style="animation: 15.2s linear infinite both a11_t, 15.2s linear infinite forwards a11_v; animation-play-state: paused;"/><use width="41.6" height="41.6" xlink:href="#richtext-2" filter="url(#Filter-1)" visibility="hidden" transform="translate(574.3,570) scale(.8,.8) translate(-20.8,-20.8)" style="animation: 15.2s linear infinite both a12_t, 15.2s linear infinite forwards a12_v; animation-play-state: paused;"/><use width="41.6" height="41.6" xlink:href="#richtext-2" opacity="0" filter="url(#Filter-1)" transform="translate(1157.7,596.9) scale(.8,.8) translate(-20.8,-20.8)" style="animation: 15.2s linear infinite both a13_t, 15.2s linear infinite both a13_o; animation-play-state: paused;"/><script>
new IntersectionObserver(function(es){es.forEach(function(e){if(e.isIntersecting){document.getElementById('_a0').getAnimations({subtree:true}).forEach(function(a){a.currentTime=0;a.play()})}else{document.getElementById('_a0').getAnimations({subtree:true}).forEach(function(a){a.pause();a.currentTime=0})}})},{threshold:.25}).observe(document.getElementById('_a0'));</script></svg>