<svg xmlns="http://www.w3.org/2000/svg" xmlns:xlink="http://www.w3.org/1999/xlink" id="_a0" viewBox="0 0 1280 720" onclick="document.getElementById('_a0').getAnimations({subtree:true}).forEach(function(a){a.currentTime=0;a.play()})" style="background: #002b36; white-space: pre;"><style>
@keyframes a0_t { 0% { transform: translate(473.3px,188.1px) scale(.5,.5); } 11.494% { transform: translate(473.3px,188.1px) scale(.5,.5); } 22.988% { transform: translate(106.3px,355.1px) scale(.5,.5); } 100% { transform: translate(106.3px,355.1px) scale(.5,.5); } }
@keyframes a0_o { 0% { opacity: 1; } 22.989% { opacity: 1; } 27.586% { opacity: 0; } 100% { opacity: 0; } }
@keyframes a1_o { 0% { opacity: 0; } 12.644% { opacity: 0; } 14.943% { opacity: 1; } 100% { opacity: 1; } }
@keyframes a2_o { 0% { opacity: 0; } 71.264% { opacity: 0; } 73.563% { opacity: 1; } 100% { opacity: 1; } }
@keyframes a3_t { 0% { transform: translate(924.2px,564.5px) scale(.5,.5); } 71.264% { transform: translate(924.2px,564.5px) scale(.5,.5); } 82.759% { transform: translate(104.2px,355.1px) scale(.5,.5); } 100% { transform: translate(104.2px,355.1px) scale(.5,.5); } }
@keyframes a3_o { 0% { opacity: 1; } 74.713% { opacity: 1; } 82.759% { opacity: 1; } 100% { opacity: 1; } }
@keyframes a3_f { 0% { fill: #fff; } 81.609% { fill: #fff; } 82.759% { fill: #000; } 100% { fill: #000; } }
@keyframes a4_o { 0% { opacity: 0; } 40.23% { opacity: 0; } 42.529% { opacity: 1; } 100% { opacity: 1; } }
@keyframes a5_t { 0% { transform: translate(1155.5px,160.1px) scale(.5,.5); } 40.23% { transform: translate(1155.5px,160.1px) scale(.5,.5); } 51.724% { transform: translate(108.5px,355.1px) scale(.5,.5); } 100% { transform: translate(108.5px,355.1px) scale(.5,.5); } }
@keyframes a5_o { 0% { opacity: 1; } 51.724% { opacity: 1; } 56.322% { opacity: 0; } 100% { opacity: 0; } }
@keyframes a6_t { 0% { transform: translate(116.8px,371.7px); } 11.494% { transform: translate(394.8px,199.7px); } 16.092% { transform: translate(394.8px,199.7px); } 22.988% { transform: translate(116.8px,373px); } 28.736% { transform: translate(116.8px,373px); } 40.23% { transform: translate(1072.8px,167.7px); } 43.678% { transform: translate(1072.8px,167.7px); } 51.724% { transform: translate(116.8px,373px); } 59.77% { transform: translate(116.8px,373px); } 71.264% { transform: translate(866.1px,576.6px); } 100% { transform: translate(866.1px,576.6px); } }
@keyframes a6_o { 0% { opacity: 1; } 11.494% { opacity: 1; } 14.943% { opacity: 0; } 26.437% { opacity: 0; } 28.736% { opacity: 1; } 40.23% { opacity: 1; } 43.678% { opacity: 0; } 55.172% { opacity: 0; } 59.77% { opacity: 1; } 71.264% { opacity: 1; } 74.713% { opacity: 0; } 100% { opacity: 0; } }
</style><use x="386" y="75" width="110" height="178" xlink:href="#server"/><use x="1064" y="54.1" width="110" height="178" xlink:href="#server"/><use x="839" y="449" width="110" height="178" xlink:href="#server"/><use x="46" y="316.6" width="230" height="169.4" xlink:href="#laptop"/><defs><symbol id="server" preserveAspectRatio="none" width="40" height="64" viewBox="0 0 40 64" overflow="visible"><g transform="translate(-12,0)"><g><g><path fill="#b4ccb9" d="M14 60c0 1.1 .9 2 2 2h32c1.1 0 2-0.9 2-2v-22h-36v22Z"/><rect x="14" y="26" fill="#b4ccb9" width="36" height="10"/><rect x="14" y="14" fill="#b4ccb9" width="36" height="10"/><path fill="#b4ccb9" d="M48 2h-32c-1.1 0-2 .9-2 2v8h36v-8c0-1.1-0.9-2-2-2Z"/></g><g opacity=".15"><rect x="14" y="26" width="36" height="10"/><rect x="14" y="14" width="36" height="10"/><path d="M48 2h-32c-1.1 0-2 .9-2 2v8h36v-8c0-1.1-0.9-2-2-2Z"/></g><g><path fill="#394240" d="M48 0h-32c-2.2 0-4 1.8-4 4v56c0 2.2 1.8 4 4 4h32c2.2 0 4-1.8 4-4v-56c0-2.2-1.8-4-4-4Zm2 60c0 1.1-0.9 2-2 2h-32c-1.1 0-2-0.9-2-2v-22h36v22Zm0-24h-36v-10h36v10Zm0-12h-36v-10h36v10Zm0-12h-36v-8c0-1.1 .9-2 2-2h32c1.1 0 2 .9 2 2v8Z"/><path fill="#394240" d="M43 6h-22c-0.6 0-1 .4-1 1c0 .6 .4 1 1 1h22c.6 0 1-0.4 1-1c0-0.6-0.4-1-1-1Z"/><path fill="#394240" d="M21 20h22c.6 0 1-0.4 1-1c0-0.6-0.4-1-1-1h-22c-0.6 0-1 .4-1 1c0 .6 .4 1 1 1Z"/><path fill="#394240" d="M21 32h22c.6 0 1-0.4 1-1c0-0.6-0.4-1-1-1h-22c-0.6 0-1 .4-1 1c0 .6 .4 1 1 1Z"/><path fill="#394240" d="M32 58c1.7 0 3-1.3 3-3c0-1.7-1.3-3-3-3c-1.7 0-3 1.3-3 3c0 1.7 1.3 3 3 3Zm0-4c.6 0 1 .4 1 1c0 .6-0.4 1-1 1c-0.6 0-1-0.4-1-1c0-0.6 .4-1 1-1Z"/><path fill="#394240" d="M40 58c1.7 0 3-1.3 3-3c0-1.7-1.3-3-3-3c-1.7 0-3 1.3-3 3c0 1.7 1.3 3 3 3Zm0-4c.6 0 1 .4 1 1c0 .6-0.4 1-1 1c-0.6 0-1-0.4-1-1c0-0.6 .4-1 1-1Z"/><path fill="#394240" d="M24 58c1.7 0 3-1.3 3-3c0-1.7-1.3-3-3-3c-1.7 0-3 1.3-3 3c0 1.7 1.3 3 3 3Zm0-4c.6 0 1 .4 1 1c0 .6-0.4 1-1 1c-0.6 0-1-0.4-1-1c0-0.6 .4-1 1-1Z"/></g></g><ellipse cx="24" cy="55" fill="#45aab8" rx="1" ry="1"/><ellipse cx="32" cy="55" fill="#f76d57" rx="1" ry="1"/><ellipse cx="40" cy="55" fill="#f9ebb2" rx="1" ry="1"/></g></symbol><symbol id="laptop" preserveAspectRatio="none" width="261" height="193.6" viewBox="0 0 261 193.6" overflow="visible"><path class="a" d="M31.1 47.5c0-13.7 0-26.3 0-35.9c0-2.4 1-4.7 2.7-6.4c1.6-1.7 3.9-2.6 6.3-2.6c38.5-0.1 148.5-0.1 180.7-0.1c2.4 0 4.7 .9 6.4 2.6c1.7 1.7 2.6 4 2.6 6.4c.1 31.4 .1 87.5 .1 122.7c9 13.9 18.1 27.9 27.1 41.8c1 1.5 1.5 3.2 1.5 4.9c0 1.2 0 2.4 0 3.5c0 3.7-3 6.7-6.8 6.7h-242.4c-3.8 0-6.8-3-6.8-6.7c0-1.4 0-2.7 0-4.3c0-1.8 .5-3.5 1.5-5c9.1-13.7 18.1-27.3 27.2-41c0-17.1-0.1-54.6-0.1-86.6Z" fill="#fff"/><path class="a" d="M201.3 15c-42.5 0-129.9 0-156.4 .1c0 30.2 0 66.2 .1 98.7v8.2c30.3 0 141.7-0.1 171.1-0.1c0-32.7 0-79.4 0-106.9Z" fill="#fff"/><path class="b" d="M221.6 146.8c-2.6-4.7-5.2-9.4-6.9-12.6h-164c-3.3 6.3-10.3 19.5-14 26.4h192.4c-1.8-3.3-4.7-8.6-7.5-13.8Z" fill="#c6c6c6"/><path class="a" d="M96 167.5c-1 4.5-2.2 10.2-2.9 13.6c13.2 0 59.7 0 75.2 0c-1.1-5.4-3.6-16.8-4.3-19.7c0 0 0-0.3-0.1-0.7h-66.4l-0.1 .7c-0.3 1-0.8 3.3-1.4 6.1Z" fill="#fff"/><path class="c" d="M33.5 47.5v-34.1c0-2 0-3.9 1.2-5.6c1-1.5 2.6-2.5 4.3-2.8c1.3-0.1 2.6-0.1 3.9 0h3.7c13.3 0 26.6 0 39.8-0.1h49.3h47.8h34.9c1.1-0.1 2.3-0.1 3.5 .1c1.7 .2 3.2 1.2 4.3 2.6c1 1.5 1.4 3.3 1.2 5.1c0 1.9 0 3.8 0 5.7c0 8.8 0 17.6 0 26.3c.1 20 .1 39.9 .1 59.8v27.1c-0.1 1.1-0.1 2.2 .1 3.2c.3 .8 .7 1.5 1.2 2.1l1.5 2.3c1.7 2.6 3.3 5.2 5 7.7l10.4 16l5.1 7.9c.9 1.3 1.7 2.6 2.5 3.9c.9 1.2 1.7 2.5 2.4 3.9c.4 1.2 .5 2.5 .4 3.8c.1 1.2 0 2.4-0.3 3.6c-0.6 1.5-2 2.6-3.7 2.7c-0.7 .1-1.5 0-2.2 0h-232.6c-2.7 0-5.3 .1-8 0c-1.2 0-2.3-0.4-3.1-1.2c-1.5-1.6-1.3-3.6-1.3-5.6c-0.1-1.3 0-2.5 .3-3.8c.6-1.4 1.3-2.7 2.3-3.9c1.7-2.6 3.4-5.2 5.2-7.8c3.5-5.3 7-10.6 10.5-15.8c1.7-2.6 3.3-5.1 5-7.6c.8-1.3 1.7-2.6 2.5-3.9c.5-0.7 1-1.4 1.4-2.1c.6-0.7 1-1.4 1.4-2.2c.1-0.9 .1-1.8 .1-2.6v-2.5c0-1.9 0-3.7 0-5.5c0-4.4 0-8.8 0-13.1v-31.3c-0.1-10.8-0.1-21.6-0.1-32.3c0-3.1-4.8-3.1-4.8 0c0 24.2 .1 48.4 .1 72.6v14l.3-1.2c-7.9 12-15.8 24-23.8 35.9c-1.8 2.8-4.3 5.6-4.9 8.9c-0.3 1.5-0.4 3.1-0.3 4.6c-0.1 1.5 0 3 .3 4.5c1.2 4 4.8 6.7 8.9 6.7c3.6 .1 7.2 0 10.8 0h230.6c.3 0 .7 0 1 0c4 0 7.5-2.6 8.8-6.4c.3-1.4 .5-2.8 .4-4.2c.1-1.7 0-3.5-0.5-5.2c-0.5-1.5-1.3-3-2.2-4.4l-3.1-4.7c-3.9-6-7.8-12.1-11.8-18.1c-3.8-5.9-7.6-11.7-11.3-17.5l.3 1.2c0-13.9 0-27.7 0-41.6c0-15.1 0-30.1 0-45.2c0-6.8 0-13.7-0.1-20.5v-9.4c0-2.9 .4-6.2-0.4-9c-0.9-3.4-3.4-6.2-6.7-7.5c-2.2-1-4.5-0.9-6.8-0.9h-11h-29.7h-36h-37.8h-34.6l-27 .1c-2.8 0-5.5 .1-8 1.6c-3 1.8-4.9 4.9-5.4 8.4c-0.1 1.8-0.2 3.5-0.1 5.3v5.7c0 4.2 0 8.4 0 12.7c0 4.5 0 9.1 0 13.6c0 3.1 4.8 3.1 4.8 0Z" fill="#211715"/><path class="c" d="M242.8 178.7h-215.5c-2.9 0-5.8-0.1-8.7 0c-0.1 0-0.3 0-0.4 0c-3.1 0-3.1 4.8 0 4.8h215.5c2.9 0 5.8 0 8.7 0c.2 0 .3 0 .4 0c3.1 0 3.1-4.8 0-4.8Z" fill="#211715"/><path class="c" d="M223.6 145.6c-2.3-4.2-4.5-8.4-6.8-12.6c-0.5-0.8-1.3-1.2-2.1-1.2h-143.8c-6.6 0-13.3-0.2-19.9 0c-0.1 0-0.2 0-0.3 0c-0.8 0-1.6 .4-2.1 1.2c-4.6 8.8-9.3 17.6-14 26.4c-0.4 .8-0.4 1.7 0 2.4c.5 .8 1.2 1.2 2.1 1.2h184.6c2.5 0 5 .1 7.5 0c.1 0 .2 0 .3 0c.9 0 1.7-0.4 2.1-1.2c.4-0.7 .4-1.6 0-2.4c-2.5-4.6-5-9.2-7.6-13.8c-1.4-2.7-5.6-0.3-4.1 2.4c2.5 4.6 5 9.2 7.6 13.9l2-3.7h-184.6c-2.4 0-5-0.1-7.5 0c-0.1 .1-0.2 0-0.3 0l2.1 3.7c4.7-8.8 9.3-17.7 14-26.5l-2.1 1.2h157.3c2.1 0 4.3 .1 6.4 0c.1 0 .2 0 .3 0l-2.1-1.2c2.3 4.2 4.6 8.4 6.9 12.6c1.5 2.7 5.6 .3 4.1-2.4Z" fill="#211715"/><path class="c" d="M95.4 181.7c1.4-6.6 2.8-13.2 4.3-19.7c.3-1.3-0.4-2.6-1.7-3c-1.3-0.3-2.6 .4-2.9 1.7c-1.5 6.6-3 13.1-4.3 19.7c-0.3 1.3 .4 2.6 1.7 3c1.2 .3 2.6-0.4 2.9-1.7Z" fill="#211715"/><path class="c" d="M161.7 162c1.5 6.5 2.9 13.1 4.3 19.7c.3 1.3 1.7 2 2.9 1.7c1.3-0.4 2.1-1.7 1.7-3c-1.3-6.6-2.8-13.1-4.2-19.7c-0.3-0.8-0.9-1.5-1.8-1.7c-0.8-0.2-1.7 .1-2.3 .7c-0.6 .6-0.8 1.5-0.6 2.3Z" fill="#211715"/><path class="c" d="M201.3 12.6h-29.3h-34.7h-35.6h-31.7l-23 .1h-2.1c-1.3 0-2.4 1-2.4 2.4c0 15.4 0 30.9 0 46.4c0 16.1 0 32.3 .1 48.5c0 4 0 8 0 12c0 1.3 1 2.4 2.4 2.4h25.9h36.9l41.2-0.1h37.6h27.3h2.2c1.3 0 2.4-1.1 2.4-2.4v-42.6c0-14.6 0-29.1 0-43.7v-20.6c-0.1-1.3-1.1-2.4-2.4-2.4h-14.8c-3.1 0-3.1 4.8 0 4.8h14.8l-2.4-2.4c0 13 0 26 0 38.9c0 14.9 0 29.8 0 44.7c0 7.8 0 15.5 0 23.3l2.4-2.4h-25.5l-36.7 .1h-41.2h-37.7h-27.7h-2.3l2.4 2.4c-0.1-11-0.1-21.9-0.1-32.9v-48.4c0-8.5 0-17.1 0-25.6l-2.4 2.4l21.7-0.1h30.9h35.4h35.1h30.1h3.2c3.1 0 3.1-4.8 0-4.8Z" fill="#211715"/></symbol></defs><text fill="#dbc746" font-size="14" font-family="'Courier New'" letter-spacing="0" word-spacing="0" font-weight="700" transform="translate(473.3,188.1) scale(.5,.5)" style="line-height: 16px; animation: 8.7s linear infinite both a0_t, 8.7s linear infinite both a0_o; animation-play-state: paused;">&lt;rss version=&quot;2.0&quot;&gt;
&lt;channel&gt;
&lt;title&gt;Alex Kirk&lt;/title&gt;
&lt;item&gt;
&lt;title&gt;Title&lt;/title&gt;
&lt;link&gt;https://alex.kirk.at/
</text><text fill="#dbc746" font-size="14" font-family="'Courier New'" letter-spacing="0" word-spacing="0" font-weight="700" opacity="0" transform="translate(473.3,188.1) scale(.5,.5)" style="line-height: 16px; animation: 8.7s linear infinite both a1_o; animation-play-state: paused;">&lt;rss version=&quot;2.0&quot;&gt;
&lt;channel&gt;
&lt;title&gt;Alex Kirk&lt;/title&gt;
&lt;item&gt;
&lt;title&gt;Title&lt;/title&gt;
&lt;link&gt;https://alex.kirk.at/
</text><text fill="#fff" font-size="14" font-family="'Courier New'" letter-spacing="0" word-spacing="0" font-weight="700" opacity="0" transform="translate(924.3,565.7) scale(.5,.5)" style="line-height: 16px; animation: 8.7s linear infinite both a2_o; animation-play-state: paused;">&lt;rss version=&quot;2.0&quot;&gt;
&lt;channel&gt;
&lt;title&gt;WordPress&lt;/title&gt;
&lt;item&gt;
&lt;title&gt;Title&lt;/title&gt;
&lt;link&gt;https://wordpress.org/
</text><text fill="#fff" font-size="14" font-family="'Courier New'" letter-spacing="0" word-spacing="0" font-weight="700" transform="translate(924.2,564.5) scale(.5,.5)" style="line-height: 16px; animation: 8.7s linear infinite both a3_t, 8.7s linear infinite both a3_o, 8.7s linear infinite both a3_f; animation-play-state: paused;">&lt;rss version=&quot;2.0&quot;&gt;
&lt;channel&gt;
&lt;title&gt;WordPress&lt;/title&gt;
&lt;item&gt;
&lt;title&gt;Title&lt;/title&gt;
&lt;link&gt;https://wordpress.org/
</text><text fill="#4cceb8" font-size="14" font-family="'Courier New'" letter-spacing="0" word-spacing="0" font-weight="700" opacity="0" transform="translate(1155.5,160.1) scale(.5,.5)" style="line-height: 16px; animation: 8.7s linear infinite both a4_o; animation-play-state: paused;">&lt;rss version=&quot;2.0&quot;&gt;
&lt;channel&gt;
&lt;title&gt;Pfefferle&lt;/title&gt;
&lt;item&gt;
&lt;title&gt;Title&lt;/title&gt;
&lt;link&gt;https://notiz.blog/
</text><text fill="#4cceb8" font-size="14" font-family="'Courier New'" letter-spacing="0" word-spacing="0" font-weight="700" transform="translate(1155.5,160.1) scale(.5,.5)" style="line-height: 16px; animation: 8.7s linear infinite both a5_t, 8.7s linear infinite both a5_o; animation-play-state: paused;">&lt;rss version=&quot;2.0&quot;&gt;
&lt;channel&gt;
&lt;title&gt;Pfefferle&lt;/title&gt;
&lt;item&gt;
&lt;title&gt;Title&lt;/title&gt;
&lt;link&gt;https://notiz.blog/
</text><text fill="#6439ff" font-size="14" font-family="Courier New" font-weight="700" letter-spacing="0" word-spacing="0" transform="translate(116.8,371.7)" style="line-height: 16px; animation: 8.7s linear infinite both a6_t, 8.7s linear infinite both a6_o; animation-play-state: paused;">/feed/ .. ?</text><script>
new IntersectionObserver(function(es){es.forEach(function(e){if(e.isIntersecting){document.getElementById('_a0').getAnimations({subtree:true}).forEach(function(a){a.currentTime=0;a.play()})}else{document.getElementById('_a0').getAnimations({subtree:true}).forEach(function(a){a.pause();a.currentTime=0})}})},{threshold:.25}).observe(document.getElementById('_a0'));</script></svg>