<?xml version="1.0" encoding="utf-8"?>

<!-- Uploaded to: SVG Repo, www.svgrepo.com, Generator: SVG Repo Mixer Tools -->
<svg fill="#000000" height="800px" width="800px" version="1.1" id="Icons" xmlns="http://www.w3.org/2000/svg" xmlns:xlink="http://www.w3.org/1999/xlink" 
	 viewBox="0 0 32 32" xml:space="preserve">
<g>
	<path d="M22,4h7c0.6,0,1-0.4,1-1s-0.4-1-1-1h-7c-0.6,0-1,0.4-1,1S21.4,4,22,4z"/>
	<path d="M29,8h-7c-0.6,0-1,0.4-1,1s0.4,1,1,1h7c0.6,0,1-0.4,1-1S29.6,8,29,8z"/>
	<path d="M29,14h-7c-0.6,0-1,0.4-1,1s0.4,1,1,1h7c0.6,0,1-0.4,1-1S29.6,14,29,14z"/>
	<path d="M29,20H3c-0.6,0-1,0.4-1,1s0.4,1,1,1h26c0.6,0,1-0.4,1-1S29.6,20,29,20z"/>
	<path d="M29,26H3c-0.6,0-1,0.4-1,1s0.4,1,1,1h26c0.6,0,1-0.4,1-1S29.6,26,29,26z"/>
	<path d="M8.6,8.2l3.4,2.6l5-3.6V3c0-0.6-0.4-1-1-1H3C2.4,2,2,2.4,2,3v9.3l5.4-4C7.8,7.9,8.2,7.9,8.6,8.2z M12,4c1.1,0,2,0.9,2,2
		s-0.9,2-2,2s-2-0.9-2-2S10.9,4,12,4z"/>
	<path d="M3,16h13c0.6,0,1-0.4,1-1V9.7l-4.4,3.2c-0.4,0.3-0.8,0.2-1.2,0L8,10.3l-6,4.5V15C2,15.6,2.4,16,3,16z"/>
</g>
</svg>